<svg width="230" height="68" viewBox="0 0 230 68" fill="none" xmlns="http://www.w3.org/2000/svg">
    <g clip-path="url(#clip0_1053_1438)">
        <path d="M4.70958 21.0884C5.61592 21.4757 6.53281 21.8346 7.45115 22.1923C7.53173 22.2236 7.61231 22.255 7.69533 22.2874C8.02139 22.4144 8.34747 22.5413 8.67358 22.6682C9.40124 22.9514 10.1276 23.2377 10.8537 23.525C12.105 24.0197 13.3572 24.5123 14.6096 25.0041C14.7054 25.0418 14.8012 25.0794 14.8999 25.1181C15.391 25.311 15.8821 25.5039 16.3732 25.6967C17.2299 26.0331 18.0865 26.3697 18.9431 26.7062C19.4106 26.8899 19.8781 27.0736 20.3457 27.2572C20.5338 27.3311 20.7219 27.405 20.91 27.4789C21.0041 27.5159 21.0983 27.5529 21.1953 27.591C24.4316 28.8624 24.4316 28.8624 24.6962 28.9664C24.8688 29.0342 25.0415 29.1019 25.2143 29.1695C25.6334 29.3336 26.0519 29.499 26.4691 29.6678C26.6762 29.7515 26.8835 29.8346 27.0909 29.9176C27.238 29.9768 27.3847 30.0368 27.5313 30.0969C27.6209 30.1327 27.7104 30.1685 27.8026 30.2054C27.9207 30.2532 27.9207 30.2532 28.0412 30.3021C28.5482 30.4534 28.9296 30.3278 29.4029 30.1325C29.4669 30.1069 29.5308 30.0813 29.5968 30.055C29.7369 29.9988 29.8768 29.9423 30.0166 29.8854C30.2445 29.7927 30.4729 29.7009 30.7013 29.6095C30.9484 29.5105 31.1954 29.4115 31.4423 29.3122C32.3397 28.9515 33.2399 28.5982 34.1403 28.2453C34.5237 28.095 34.907 27.9444 35.2903 27.7939C35.5826 27.6791 35.8748 27.5644 36.1671 27.4497C36.7449 27.2228 37.3226 26.9958 37.9003 26.7688C39.8899 25.987 41.8796 25.2055 43.8699 24.4254C44.7198 24.0923 45.5697 23.7588 46.4193 23.4247C48.1217 22.7553 49.8253 22.0891 51.5321 21.4312C51.7151 21.3606 51.8981 21.29 52.0811 21.2193C55.1179 20.0464 55.1179 20.0464 56.0002 20.4355C56.4153 20.6674 56.7644 21.0046 56.9085 21.4691C56.9494 21.6727 56.9549 21.8602 56.9555 22.0679C56.9559 22.1535 56.9563 22.2392 56.9568 22.3275C56.9569 22.4687 56.9569 22.4687 56.957 22.6126C56.9574 22.7127 56.9578 22.8128 56.9582 22.916C56.9593 23.1942 56.9599 23.4724 56.9605 23.7507C56.9611 24.0511 56.9622 24.3514 56.9633 24.6518C56.9653 25.2424 56.9668 25.8329 56.9682 26.4234C56.9699 27.1179 56.9721 27.8123 56.9742 28.5067C56.9781 29.7547 56.9816 31.0026 56.9849 32.2506C56.988 33.445 56.9913 34.6395 56.995 35.834C56.9953 35.9429 56.9953 35.9429 56.9956 36.0541C56.9965 36.3465 56.9974 36.639 56.9983 36.9315C57.0084 40.2834 57.0171 43.6353 57.0243 46.9872C57.025 47.3195 57.0257 47.6518 57.0265 47.9841C57.0288 49.0708 57.0308 50.1575 57.0318 51.2441C57.0321 51.5436 57.0325 51.8431 57.0331 52.1425C57.0338 52.4777 57.0341 52.8128 57.0341 53.1479C57.0341 53.2652 57.0343 53.3825 57.0346 53.4998C57.0405 55.682 57.0405 55.682 56.4875 56.2816C56.0894 56.6371 55.7029 56.8563 55.2086 57.052C55.1354 57.0822 55.0621 57.1124 54.9867 57.1435C54.7512 57.2401 54.5151 57.3347 54.2788 57.4291C54.1215 57.4927 53.9642 57.5564 53.807 57.6201C53.3992 57.7847 52.9907 57.9474 52.5819 58.1096C52.1379 58.2859 51.6942 58.4629 51.2505 58.64C51.1629 58.675 51.0753 58.7099 50.9851 58.746C50.2552 59.0377 49.5276 59.3346 48.8014 59.6352C48.5826 59.7257 48.3637 59.8163 48.1448 59.9068C48.0914 59.929 48.0379 59.9511 47.9828 59.9739C47.3566 60.2326 46.7286 60.4867 46.1006 60.7407C44.9515 61.2057 43.8033 61.6728 42.6554 62.1409C40.7797 62.9057 38.9026 63.6668 37.0242 64.4252C36.2871 64.7229 35.5501 65.021 34.8132 65.3193C34.6032 65.4043 34.3932 65.4892 34.1831 65.5741C33.5631 65.8248 32.9433 66.0761 32.3246 66.3298C32.0525 66.4413 31.7802 66.5526 31.508 66.6638C31.3814 66.7156 31.2549 66.7676 31.1284 66.8198C29.5969 67.4517 28.4807 67.851 26.8697 67.1979C26.6543 67.1079 26.4395 67.0164 26.2252 66.924C25.9069 66.787 25.5874 66.6527 25.2679 66.5183C25.1641 66.4745 25.1641 66.4745 25.0581 66.4299C24.1714 66.0575 23.2779 65.7021 22.3845 65.346C22.2058 65.2747 22.0271 65.2034 21.8484 65.132C21.2087 64.8769 20.569 64.6221 19.9292 64.3674C19.2953 64.115 18.6615 63.8624 18.0279 63.6094C17.9392 63.574 17.8506 63.5386 17.7592 63.5021C16.2504 62.8994 14.7471 62.2837 13.2467 61.6604C12.2896 61.2628 11.3299 60.8718 10.369 60.4833C10.2265 60.4256 10.2265 60.4256 10.081 60.3668C9.86346 60.2789 9.64584 60.1912 9.42818 60.1037C9.34877 60.0718 9.26936 60.0398 9.18755 60.0069C8.51208 59.7353 7.83621 59.4647 7.16025 59.1944C7.10706 59.1731 7.05386 59.1518 6.99906 59.1299C6.42472 58.9002 5.85031 58.6707 5.27579 58.4415C4.79736 58.2506 4.31927 58.0589 3.84124 57.867C3.59471 57.7685 3.3479 57.6707 3.1009 57.5734C2.85494 57.4763 2.6094 57.3781 2.36377 57.2802C2.23032 57.2281 2.23032 57.2281 2.09416 57.1749C1.35732 56.8792 0.618777 56.55 0.242245 55.8136C0.0630215 55.2668 0.057164 54.7164 0.0582076 54.1464C0.0577397 54.0538 0.0572719 53.9613 0.0567899 53.866C0.0554198 53.5567 0.0551845 53.2474 0.0549464 52.9382C0.0542833 52.7156 0.05338 52.493 0.0524876 52.2705C0.0504525 51.727 0.0492621 51.1836 0.0483428 50.6402C0.0472187 49.9983 0.0451993 49.3564 0.0431423 48.7145C0.0394619 47.558 0.0365131 46.4015 0.034004 45.2449C0.031615 44.1443 0.0288497 43.0436 0.025564 41.943C0.0253654 41.8763 0.0251668 41.8096 0.0249622 41.741C0.0241612 41.4723 0.023358 41.2036 0.0225521 40.9349C0.0148654 38.3705 0.00873921 35.8061 0.00415543 33.2417C0.00370475 32.9906 0.00325193 32.7396 0.00279754 32.4885C0.00268656 32.427 0.00257542 32.3654 0.00246107 32.302C0.00071566 31.3423 -0.0016645 30.3827 -0.00437767 29.423C-0.00698277 28.4991 -0.00902271 27.5751 -0.010456 26.6512C-0.0112361 26.1582 -0.0122724 25.6651 -0.0140028 25.1721C-0.0155699 24.7231 -0.0163869 24.2741 -0.0165965 23.8251C-0.0168037 23.6635 -0.0172857 23.502 -0.0180724 23.3404C-0.0190985 23.1215 -0.01912 22.9027 -0.0188917 22.6839C-0.019425 22.6216 -0.0199583 22.5593 -0.0205078 22.4951C-0.0176034 21.8514 0.0671797 21.2687 0.484561 20.7586C1.74132 19.5564 3.37168 20.5126 4.70958 21.0884ZM3.87699 24.8779C3.86484 28.4917 3.85313 32.1055 3.84199 35.7193C3.84068 36.1458 3.83936 36.5722 3.83804 36.9987C3.83778 37.0836 3.83752 37.1685 3.83725 37.256C3.83298 38.6314 3.82843 40.0068 3.82376 41.3823C3.81899 42.7932 3.81452 44.2041 3.81035 45.615C3.80776 46.4859 3.80493 47.3568 3.80179 48.2277C3.79966 48.8246 3.79783 49.4214 3.79624 50.0183C3.79532 50.3629 3.79426 50.7074 3.79284 51.052C3.79154 51.3674 3.79063 51.6828 3.79001 51.9982C3.78972 52.1123 3.78929 52.2265 3.78871 52.3406C3.78794 52.4958 3.78773 52.6509 3.78754 52.806C3.78726 52.8922 3.78699 52.9784 3.7867 53.0672C3.79658 53.319 3.81687 53.5494 3.87699 53.7943C4.06296 53.9157 4.21047 53.9895 4.41431 54.0676C4.49969 54.1029 4.49969 54.1029 4.58678 54.139C4.77858 54.2178 4.97138 54.2938 5.16429 54.3698C5.30223 54.4258 5.4401 54.482 5.57792 54.5383C5.95433 54.6914 6.33171 54.8421 6.70933 54.9922C7.02575 55.1184 7.34163 55.2459 7.6575 55.3734C8.76501 55.8204 9.87472 56.2619 10.9849 56.7021C11.0747 56.7377 11.1645 56.7733 11.257 56.81C12.0782 57.1357 12.8996 57.4611 13.721 57.7863C15.9721 58.6776 18.2198 59.5761 20.4605 60.4934C21.7686 61.0288 23.0789 61.5583 24.3931 62.0785C24.503 62.1221 24.503 62.1221 24.6151 62.1666C24.822 62.2486 25.0291 62.3304 25.2362 62.412C25.2958 62.4357 25.3555 62.4593 25.4169 62.4837C25.8265 62.6445 26.2358 62.7819 26.6547 62.9216C26.6547 53.2992 26.6547 43.6768 26.6547 33.7629C26.015 33.523 25.3753 33.2831 24.7162 33.0359C24.3401 32.8877 23.9649 32.7387 23.5904 32.5866C23.385 32.5038 23.1795 32.4211 22.9739 32.3386C22.9203 32.3171 22.8667 32.2956 22.8114 32.2734C22.0936 31.986 21.3729 31.7061 20.6523 31.4255C20.3675 31.3146 20.0827 31.2036 19.7979 31.0926C19.7283 31.0655 19.6587 31.0384 19.5869 31.0104C18.9387 30.7578 18.2909 30.5041 17.6436 30.2493C17.5915 30.2288 17.5395 30.2083 17.4859 30.1872C16.8015 29.9177 16.1181 29.6455 15.4353 29.3718C15.3607 29.3419 15.2861 29.312 15.2092 29.2812C14.8411 29.1337 14.4731 28.986 14.1052 28.838C13.9721 28.7845 13.839 28.7311 13.7059 28.6777C13.6133 28.6403 13.6133 28.6403 13.5187 28.6021C13.2689 28.4838 13.2689 28.4838 13.0042 28.4319C13.0041 28.4824 13.004 28.5328 13.0039 28.5848C13.0009 29.8153 12.9961 31.0457 12.9894 32.2761C12.9862 32.8712 12.9836 33.4662 12.9823 34.0613C12.9813 34.5802 12.9791 35.0991 12.9756 35.618C12.9738 35.8925 12.9725 36.167 12.9726 36.4416C12.9724 36.7488 12.9702 37.056 12.9676 37.3632C12.9682 37.4982 12.9682 37.4982 12.9688 37.6359C12.9606 38.2497 12.8792 38.8446 12.47 39.3289C12.0837 39.7038 11.6257 39.882 11.0925 39.9148C10.5141 39.8936 10.0513 39.716 9.61181 39.3361C9.29907 38.9051 9.19757 38.45 9.19878 37.9245C9.19879 37.7897 9.19879 37.7897 9.19879 37.6521C9.19942 37.5047 9.19942 37.5047 9.20006 37.3543C9.20024 37.195 9.20042 37.0357 9.2006 36.8763C9.20087 36.7052 9.20135 36.5341 9.20188 36.363C9.20297 36.0058 9.20344 35.6487 9.20382 35.2915C9.2048 34.4685 9.20658 33.6455 9.20837 32.8225C9.21 32.069 9.21146 31.3155 9.21226 30.562C9.21266 30.2074 9.21346 29.8528 9.21456 29.4982C9.21502 29.3304 9.21529 29.1626 9.21548 28.9948C9.21571 28.7908 9.21623 28.5867 9.2171 28.3827C9.21713 27.9064 9.20021 27.4489 9.12717 26.978C9.06815 26.9546 9.00913 26.9311 8.94832 26.907C8.66122 26.7928 8.3742 26.6785 8.08723 26.564C8.03426 26.5429 7.98129 26.5218 7.92671 26.5C6.88733 26.0851 5.85231 25.66 4.81869 25.231C4.76166 25.2073 4.70463 25.1837 4.64587 25.1594C4.53844 25.1149 4.43105 25.0703 4.32372 25.0256C4.10746 24.9217 4.10746 24.9217 3.87699 24.8779ZM52.552 25.1367C52.4604 25.1754 52.3688 25.2142 52.2744 25.2542C52.2005 25.2856 52.2005 25.2856 52.1251 25.3176C51.3902 25.6296 50.653 25.9301 49.9013 26.1996C49.8404 26.2214 49.7796 26.2433 49.7169 26.2658C49.419 26.3721 49.1207 26.4769 48.8219 26.5804C48.713 26.6188 48.604 26.6572 48.4951 26.6956C48.3991 26.7288 48.3032 26.762 48.2044 26.7961C47.9571 26.8827 47.9571 26.8827 47.817 27.1395C47.7935 27.3456 47.7935 27.3456 47.7987 27.5808C47.7987 27.6725 47.7987 27.7643 47.7987 27.8587C47.7995 27.9594 47.8004 28.0602 47.8012 28.1639C47.8016 28.3266 47.802 28.4894 47.8023 28.6521C47.8029 28.8272 47.8038 29.0023 47.8049 29.1773C47.807 29.5426 47.808 29.9079 47.8088 30.2732C47.8107 31.1153 47.8143 31.9573 47.8178 32.7993C47.8211 33.5698 47.824 34.3402 47.8256 35.1107C47.8264 35.4733 47.828 35.8359 47.8302 36.1985C47.8314 36.425 47.832 36.6515 47.8323 36.8779C47.8328 37.0319 47.834 37.1858 47.8353 37.3397C47.8354 38.08 47.818 38.7426 47.3324 39.3361C46.9241 39.7353 46.574 39.8745 46.0097 39.9268C45.4544 39.8789 44.9317 39.703 44.5054 39.3361C44.2017 38.8728 44.0927 38.4177 44.0887 37.8665C44.0875 37.7423 44.0875 37.7423 44.0863 37.6156C44.0858 37.5257 44.0854 37.4357 44.0849 37.3431C44.0841 37.2477 44.0833 37.1523 44.0825 37.054C44.0804 36.7932 44.0786 36.5324 44.077 36.2716C44.0752 35.9988 44.073 35.7259 44.0709 35.4531C44.0668 34.9368 44.0632 34.4204 44.0597 33.9041C44.0557 33.3161 44.0513 32.7282 44.0468 32.1402C44.0376 30.931 44.029 29.7219 44.0207 28.5127C43.8941 28.5499 43.7676 28.5873 43.6411 28.6247C43.5707 28.6456 43.5002 28.6664 43.4276 28.6878C43.0836 28.7955 42.7509 28.9287 42.4166 29.0632C42.3419 29.093 42.2672 29.1227 42.1902 29.1534C42.0294 29.2174 41.8687 29.2815 41.708 29.3458C41.2723 29.5202 40.836 29.6934 40.3999 29.8669C40.3105 29.9024 40.2211 29.938 40.129 29.9747C39.2602 30.3203 38.3896 30.6614 37.5186 31.0015C37.2155 31.1199 36.9123 31.2383 36.6092 31.3567C36.5319 31.3869 36.4546 31.4172 36.3749 31.4483C35.7178 31.7052 35.0611 31.9631 34.4044 32.2212C34.3529 32.2415 34.3013 32.2618 34.2482 32.2826C33.6899 32.5021 33.1316 32.7217 32.5733 32.9414C32.3886 33.014 32.2039 33.0866 32.0191 33.1593C31.9353 33.1923 31.8515 33.2253 31.7652 33.2593C31.6865 33.2902 31.6078 33.3211 31.5268 33.353C31.4535 33.3821 31.3802 33.4112 31.3047 33.4411C31.1708 33.4924 31.0357 33.5407 30.8994 33.5854C30.7034 33.647 30.7034 33.647 30.451 33.7629C30.3437 34.0244 30.3607 34.2967 30.3616 34.576C30.3617 34.6771 30.3618 34.7782 30.3619 34.8824C30.3625 34.9948 30.363 35.1071 30.3636 35.2195C30.3639 35.3387 30.3642 35.458 30.3644 35.5772C30.3651 35.9052 30.3664 36.2333 30.3677 36.5613C30.369 36.9149 30.3699 37.2685 30.3708 37.6221C30.3725 38.2348 30.3745 38.8476 30.3767 39.4604C30.3798 40.3463 30.3825 41.2323 30.3851 42.1182C30.3893 43.5556 30.3939 44.9929 30.3987 46.4302C30.4033 47.8266 30.4078 49.223 30.4121 50.6194C30.4123 50.7055 30.4126 50.7915 30.4129 50.8802C30.4142 51.3118 30.4155 51.7435 30.4168 52.1752C30.4277 55.7573 30.4391 59.3394 30.451 62.9216C30.7849 62.7936 31.1188 62.6655 31.4526 62.5373C31.5463 62.5014 31.64 62.4655 31.7365 62.4285C32.4488 62.1549 33.1565 61.8716 33.8614 61.5793C34.1953 61.4409 34.5296 61.3034 34.8638 61.1657C34.9329 61.1373 35.0019 61.1088 35.0731 61.0795C35.8297 60.7681 36.5883 60.4615 37.3469 60.1551C38.578 59.6578 39.808 59.1578 41.0372 58.6558C41.161 58.6053 41.161 58.6053 41.2872 58.5537C42.042 58.2455 42.7966 57.9371 43.5513 57.6286C44.0476 57.4258 44.544 57.2229 45.0405 57.0202C45.1623 56.9704 45.1623 56.9704 45.2867 56.9196C46.5296 56.4121 47.7737 55.9076 49.0185 55.4047C49.1777 55.3404 49.3368 55.2761 49.496 55.2118C50.6806 54.7332 50.6806 54.7332 51.1781 54.5326C51.4916 54.4063 51.8049 54.2796 52.1181 54.1528C52.2056 54.1176 52.293 54.0825 52.3831 54.0463C52.461 54.0147 52.5389 53.9831 52.6192 53.9505C52.6851 53.9239 52.751 53.8973 52.819 53.8699C53.0052 53.7914 53.0052 53.7914 53.2287 53.6328C53.2653 53.4395 53.2653 53.4395 53.2588 53.2097C53.2593 53.1194 53.2598 53.0292 53.2604 52.9362C53.2594 52.7861 53.2594 52.7861 53.2584 52.6331C53.2587 52.5275 53.2589 52.4218 53.2592 52.313C53.2599 52.0187 53.2591 51.7245 53.258 51.4302C53.2572 51.1132 53.2577 50.7961 53.258 50.479C53.2585 49.8568 53.2576 49.2346 53.2564 48.6123C53.255 47.8861 53.2549 47.1598 53.2548 46.4335C53.2547 45.135 53.2534 43.8366 53.2515 42.5381C53.2496 41.2825 53.2484 40.027 53.2481 38.7714C53.2481 38.6559 53.2481 38.6559 53.2481 38.5381C53.2481 38.3829 53.248 38.2278 53.248 38.0726C53.248 37.9961 53.2479 37.9195 53.2479 37.8406C53.2479 37.7642 53.2479 37.6878 53.2479 37.6091C53.2476 36.4083 53.2467 35.2076 53.2457 34.0068C53.2453 33.574 53.245 33.1411 53.2448 32.7083C53.2444 32.0195 53.2438 31.3307 53.2426 30.6419C53.2421 30.3278 53.2417 30.0138 53.2416 29.6997C53.2412 28.1177 53.2113 26.5395 53.148 24.9587C52.9206 24.9587 52.7611 25.047 52.552 25.1367Z" fill="#0072F8"/>
        <path d="M23.1491 1.88329C23.7912 2.31957 24.3644 2.81929 24.9209 3.35915C25.0285 3.46295 25.1379 3.56473 25.2476 3.66627C26.2168 4.58696 26.9787 5.70117 27.6241 6.86592C27.6549 6.92124 27.6856 6.97657 27.7173 7.03357C27.8099 7.20106 27.9016 7.36901 27.9926 7.53733C28.0347 7.61498 28.0347 7.61498 28.0776 7.69419C28.2703 8.05781 28.2703 8.05781 28.2703 8.23904C28.3236 8.23904 28.3769 8.23904 28.4318 8.23904C28.4417 8.17988 28.4515 8.12071 28.4617 8.05975C28.8409 6.38651 30.2935 4.78943 31.4204 3.55426C31.4737 3.49418 31.527 3.43411 31.5819 3.37221C33.1887 1.65427 35.7847 0.278735 38.1437 0.0646541C38.7895 0.0500606 39.3578 0.193882 39.8368 0.644257C40.1696 1.01899 40.4411 1.43603 40.7092 1.85805C40.742 1.90964 40.7748 1.96123 40.8087 2.01439C42.5678 4.813 43.4398 8.01239 43.3746 11.3084C43.4683 11.3264 43.5621 11.3445 43.6586 11.3631C44.2434 11.4935 44.8068 11.6956 45.3737 11.887C45.4982 11.9288 45.6228 11.9704 45.7473 12.0121C46.0749 12.1217 46.4023 12.2318 46.7297 12.342C47.3108 12.5375 47.8921 12.7322 48.4734 12.927C48.5359 12.9479 48.5984 12.9689 48.6627 12.9905C49.6196 13.3112 50.5786 13.6241 51.5407 13.9287C53.3993 14.5178 53.3993 14.5178 53.8116 15.288C54.0205 15.853 54.0076 16.3768 53.8028 16.9403C53.4333 17.7002 52.7553 18.0498 51.9923 18.327C51.9366 18.3476 51.8809 18.3681 51.8234 18.3893C51.2323 18.6041 50.6326 18.7902 50.0316 18.9754C48.4099 19.4764 46.8057 20.0251 45.2035 20.5849C43.8301 21.0644 42.4514 21.5268 41.0708 21.985C40.2085 22.2712 39.3465 22.5585 38.4845 22.8455C38.3907 22.8768 38.2969 22.908 38.2003 22.9402C37.8165 23.068 37.4327 23.1958 37.0489 23.3236C36.5579 23.4871 36.0669 23.6506 35.5759 23.814C35.0912 23.9752 34.6066 24.1366 34.1219 24.2981C33.9403 24.3586 33.7586 24.4191 33.5768 24.4795C33.323 24.5639 33.0693 24.6485 32.8155 24.7331C32.7367 24.7593 32.6579 24.7856 32.5767 24.8127C32.0293 24.996 31.4843 25.1856 30.9425 25.385C30.7124 25.4683 30.5366 25.5243 30.2896 25.5243C30.2696 25.5942 30.2496 25.6642 30.229 25.7363C30.0117 26.3228 29.7024 26.6172 29.1588 26.8974C28.6322 27.0729 27.9443 27.061 27.4171 26.8823C26.9992 26.6619 26.7765 26.446 26.6094 26.0089C26.384 25.5363 25.9076 25.4516 25.4432 25.282C25.0955 25.16 24.7461 25.0437 24.3956 24.9298C24.0786 24.8265 23.7621 24.7215 23.4457 24.6165C23.3755 24.5932 23.3053 24.5699 23.2329 24.5459C22.2323 24.213 21.2354 23.869 20.2385 23.5252C20.1881 23.5078 20.1377 23.4904 20.0858 23.4725C18.6435 22.975 17.204 22.4702 15.7672 21.9571C12.9421 20.9484 10.1047 19.9755 7.26263 19.0156C5.69445 18.4857 5.69445 18.4857 4.94606 18.2248C4.86571 18.1971 4.86571 18.1971 4.78374 18.1689C4.10717 17.931 3.57319 17.6705 3.21798 17.0296C2.98055 16.5117 2.98203 15.902 3.13405 15.3577C3.40603 14.7427 3.84075 14.4431 4.45762 14.1923C4.774 14.0815 5.09214 13.9788 5.41176 13.8779C5.53534 13.838 5.65889 13.7979 5.78239 13.7577C5.98756 13.691 6.19276 13.6243 6.39809 13.5581C7.33712 13.2549 8.27247 12.9406 9.2083 12.6278C9.60745 12.4944 10.0067 12.3613 10.406 12.2284C10.5919 12.1664 10.7778 12.1042 10.9637 12.042C11.3467 11.9138 11.7297 11.7864 12.1153 11.6661C12.1731 11.6478 12.2309 11.6295 12.2905 11.6107C12.436 11.5649 12.5819 11.5201 12.7278 11.4754C12.7924 11.447 12.857 11.4185 12.9236 11.3892C13.0108 11.1274 13.0233 10.9162 13.0362 10.6407C13.0415 10.5381 13.0469 10.4354 13.0524 10.3296C13.0552 10.2752 13.058 10.2207 13.0609 10.1646C13.2527 6.59132 14.346 2.8463 17.0429 0.323377C18.4757 -0.859035 21.8612 1.03946 23.1491 1.88329ZM18.9007 4.11967C17.996 5.21661 17.4447 6.53957 17.1237 7.91595C17.1106 7.97025 17.0975 8.02455 17.084 8.0805C16.8128 9.25052 16.8565 10.4375 16.8814 11.6315C16.9288 11.6553 16.9762 11.6792 17.025 11.7038C19.7477 13.0817 22.4346 14.7743 24.573 16.9804C24.7162 17.1239 24.8649 17.2552 25.0192 17.3865C25.3694 17.6864 25.6907 18.0132 26.0128 18.3427C26.1177 18.4494 26.2246 18.5542 26.3317 18.6586C26.3584 18.6586 26.385 18.6586 26.4125 18.6586C26.4724 15.3261 26.1249 12.0145 24.474 9.04676C24.4275 8.96097 24.3811 8.87517 24.3333 8.78678C23.82 7.86903 23.1749 7.06352 22.4547 6.30051C22.3792 6.21867 22.3792 6.21867 22.3023 6.13518C21.6522 5.4538 20.9204 4.90353 20.082 4.47809C20.0292 4.45107 19.9764 4.42405 19.922 4.39622C19.5793 4.23044 19.2798 4.15542 18.9007 4.11967ZM37.0593 4.2424C36.9654 4.28572 36.9654 4.28572 36.8697 4.32992C36.7711 4.37827 36.7711 4.37827 36.6706 4.42761C36.6023 4.46068 36.534 4.49375 36.4637 4.52782C35.8469 4.83683 35.3333 5.20191 34.8128 5.65434C34.7711 5.68996 34.7294 5.72558 34.6864 5.76228C31.7488 8.2822 30.5273 12.1155 30.2101 15.863C30.1389 16.7957 30.106 17.7235 30.128 18.6586C30.5129 18.3472 30.5129 18.3472 30.8449 17.9822C31.0592 17.725 31.291 17.5124 31.5459 17.2962C31.7473 17.1206 31.9409 16.9388 32.1348 16.755C32.6841 16.2359 33.2534 15.7603 33.8541 15.3022C34.0094 15.1821 34.1619 15.0593 34.3143 14.9356C35.0785 14.3198 35.8751 13.7612 36.6908 13.2166C36.7414 13.1827 36.7921 13.1487 36.8442 13.1137C37.4737 12.6928 38.1119 12.2985 38.7735 11.9297C39.2908 11.6559 39.2908 11.6559 39.6591 11.2276C39.8079 9.03638 39.1458 6.8818 38.2052 4.92739C38.1729 4.85882 38.1405 4.79026 38.1071 4.71962C38.0738 4.65366 38.0405 4.5877 38.0061 4.51974C37.9618 4.4306 37.9618 4.4306 37.9165 4.33966C37.808 4.18407 37.808 4.18407 37.6078 4.13242C37.3788 4.11853 37.2656 4.14672 37.0593 4.2424ZM41.39 14.8497C41.332 14.8832 41.2739 14.9166 41.2141 14.951C41.1508 14.9884 41.0874 15.0258 41.0222 15.0643C40.9554 15.1034 40.8886 15.1425 40.8198 15.1828C38.3661 16.6343 36.0183 18.2532 33.9243 20.1933C34.2143 20.29 34.2948 20.2513 34.5794 20.1557C34.6648 20.1275 34.7502 20.0992 34.8383 20.07C34.932 20.0381 35.0258 20.0062 35.1224 19.9734C35.2212 19.9404 35.32 19.9075 35.4218 19.8735C35.6937 19.7829 35.9652 19.6913 36.2367 19.5996C36.5223 19.5032 36.8082 19.4078 37.0941 19.3122C37.6377 19.1304 38.1811 18.9478 38.7243 18.765C39.5147 18.499 40.3055 18.234 41.0963 17.9691C41.2143 17.9296 41.3324 17.89 41.4505 17.8505C41.5083 17.8311 41.5661 17.8117 41.6257 17.7918C41.9639 17.6784 42.3021 17.5649 42.6402 17.4511C43.8778 17.0349 45.1173 16.6261 46.3632 16.2355C46.1749 16.0472 46.0465 16.0104 45.7942 15.9295C45.7093 15.9021 45.6244 15.8746 45.5369 15.8463C45.4448 15.8171 45.3528 15.7879 45.258 15.7578C45.1637 15.7275 45.0695 15.6973 44.9725 15.6661C44.773 15.6022 44.5734 15.5385 44.3738 15.4751C44.0676 15.3777 43.7617 15.2794 43.4559 15.181C43.2623 15.1191 43.0688 15.0573 42.8752 14.9955C42.7833 14.966 42.6914 14.9364 42.5967 14.906C42.5116 14.8791 42.4264 14.8521 42.3387 14.8243C42.2636 14.8004 42.1886 14.7765 42.1113 14.7519C41.8111 14.6714 41.6516 14.6986 41.39 14.8497ZM13.9231 14.9835C13.8527 15.0047 13.7822 15.0259 13.7097 15.0478C13.1233 15.2263 12.5408 15.4158 11.9593 15.6095C11.8767 15.637 11.794 15.6646 11.7088 15.693C11.3557 15.8115 11.0069 15.9332 10.6619 16.0739C10.8626 16.2077 10.9966 16.2764 11.2187 16.3507C11.2824 16.3721 11.346 16.3936 11.4115 16.4158C11.5157 16.4504 11.5157 16.4504 11.6221 16.4857C11.6954 16.5104 11.7687 16.5351 11.8443 16.5606C12.0038 16.6143 12.1634 16.6679 12.3231 16.7214C12.7557 16.8664 13.1878 17.0128 13.6199 17.1593C13.7095 17.1897 13.799 17.22 13.8913 17.2513C14.8168 17.566 15.7383 17.8916 16.6593 18.2194C16.9791 18.3333 17.2989 18.4471 17.6188 18.5608C17.6974 18.5888 17.776 18.6168 17.857 18.6456C18.8954 19.0145 19.9365 19.3761 20.9777 19.7374C21.0471 19.7616 21.1166 19.7857 21.1882 19.8106C21.3169 19.8553 21.4457 19.9 21.5745 19.9446C21.813 20.0275 22.0478 20.1112 22.279 20.2129C22.4655 20.2979 22.4655 20.2979 22.697 20.1933C22.1383 19.6684 21.577 19.1545 20.9784 18.6747C20.7498 18.4901 20.5273 18.2994 20.3041 18.1084C19.0617 17.0733 17.6924 16.257 16.2807 15.4782C16.206 15.4369 16.1314 15.3955 16.0545 15.3528C15.2629 14.9211 14.805 14.7169 13.9231 14.9835Z" fill="#0072F8"/>
    </g>
    <g clip-path="url(#clip1_1053_1438)">
        <path d="M69.0681 7.82459C71.112 7.82459 73.1559 7.82459 75.2617 7.82459C75.4371 9.14346 75.6119 10.4624 75.785 11.7816C75.7979 11.8802 75.8108 11.9788 75.8242 12.0804C76.208 15.0098 76.5662 17.9408 76.8817 20.8784C76.8904 20.9586 76.899 21.0388 76.9079 21.1214C77.0107 22.0797 77.112 23.0381 77.2115 23.9966C77.437 22.8951 77.6598 21.794 77.8472 20.6853C78.584 16.3654 79.5771 12.0989 80.5376 7.82459C82.203 7.82459 83.8684 7.82459 85.5842 7.82459C85.8568 8.97053 86.1248 10.1172 86.3871 11.2655C86.4246 11.4293 86.4246 11.4293 86.4628 11.5964C87.4107 15.7493 88.2104 19.9103 88.9104 24.1113C88.9196 24.0288 88.9288 23.9463 88.9383 23.8613C89.3881 19.8339 89.8519 15.8086 90.36 11.7881C90.3944 11.5157 90.4285 11.2432 90.4627 10.9707C90.5163 10.543 90.5705 10.1153 90.6252 9.68762C90.6452 9.53013 90.6651 9.37262 90.6849 9.2151C90.7118 9.00082 90.7394 8.78662 90.767 8.57243C90.7823 8.45224 90.7976 8.33204 90.8134 8.20821C90.8602 7.93929 90.8602 7.93929 90.9749 7.82459C91.151 7.8139 91.3275 7.81112 91.5039 7.81157C91.6164 7.81158 91.7289 7.81159 91.8448 7.8116C91.9671 7.81219 92.0895 7.81278 92.2155 7.81339C92.4024 7.81363 92.4024 7.81363 92.593 7.81388C92.9927 7.81453 93.3924 7.81597 93.7921 7.81742C94.0624 7.818 94.3326 7.81852 94.6028 7.81899C95.2669 7.82026 95.9309 7.82222 96.595 7.82459C96.5261 8.98387 96.3446 10.1156 96.1532 11.2592C96.1195 11.4636 96.0857 11.6679 96.052 11.8723C95.9611 12.4233 95.8694 12.9741 95.7776 13.525C95.6815 14.1023 95.586 14.6798 95.4903 15.2573C95.3299 16.2255 95.169 17.1936 95.0079 18.1617C94.8214 19.2817 94.6356 20.4019 94.4502 21.522C94.2717 22.6005 94.0927 23.679 93.9136 24.7574C93.8374 25.2162 93.7613 25.6751 93.6853 26.134C93.596 26.6731 93.5064 27.2121 93.4164 27.7511C93.3834 27.9493 93.3505 28.1475 93.3178 28.3457C93.2732 28.6153 93.2282 28.8848 93.1831 29.1543C93.1636 29.2731 93.1636 29.2731 93.1438 29.3942C93.0525 29.9346 93.0525 29.9346 92.9247 30.1902C90.4267 30.1902 87.9286 30.1902 85.3549 30.1902C84.8866 27.7955 84.8866 27.7955 84.6842 26.7536C84.5474 26.0499 84.4105 25.3463 84.2727 24.6429C83.3005 19.679 83.3005 19.679 82.9855 17.2274C82.9562 16.9925 82.9562 16.9925 82.8316 16.7708C82.8129 16.9013 82.8129 16.9013 82.7939 17.0344C82.3726 19.9279 81.843 22.8005 81.3047 25.6741C81.2863 25.7723 81.2679 25.8704 81.249 25.9716C81.125 26.6339 81.0006 27.296 80.8759 27.9581C80.8595 28.0454 80.8431 28.1327 80.8262 28.2226C80.78 28.468 80.7336 28.7134 80.6872 28.9588C80.661 29.0975 80.6348 29.2361 80.6078 29.379C80.5537 29.651 80.4902 29.9211 80.423 30.1902C77.9627 30.1902 75.5025 30.1902 72.9678 30.1902C72.5438 27.7822 72.12 25.3741 71.6964 22.966C71.4997 21.8475 71.3029 20.729 71.1059 19.6105C70.934 18.6339 70.7621 17.6573 70.5904 16.6806C70.4997 16.165 70.4091 15.6495 70.3182 15.134C69.8893 12.6995 69.4707 10.2637 69.0681 7.82459Z" fill="black"/>
        <path d="M211.864 37.416C213.87 37.416 215.876 37.416 217.943 37.416C218.64 38.7402 219.333 40.0626 220 41.4017C220.039 41.4798 220.078 41.5578 220.118 41.6383C220.773 42.9499 221.412 44.2683 222.038 45.5934C222.189 45.9082 222.342 46.2216 222.495 46.5347C223.35 48.282 224.097 50.0647 224.824 51.8676C224.804 51.6657 224.804 51.6657 224.784 51.4596C224.734 50.9532 224.684 50.4468 224.635 49.9404C224.613 49.7225 224.592 49.5046 224.57 49.2867C224.539 48.971 224.508 48.6552 224.477 48.3394C224.463 48.1967 224.463 48.1967 224.449 48.051C224.42 47.7558 224.392 47.4605 224.366 47.1651C224.355 47.0541 224.344 46.9431 224.333 46.8287C224.243 45.7923 224.236 44.7612 224.24 43.722C224.24 43.539 224.24 43.356 224.24 43.173C224.241 42.6965 224.242 42.22 224.243 41.7436C224.244 41.1691 224.245 40.5946 224.246 40.0201C224.247 39.1521 224.249 38.2841 224.251 37.416C226.143 37.416 228.036 37.416 229.986 37.416C229.986 44.7967 229.986 52.1773 229.986 59.7816C227.942 59.7816 225.898 59.7816 223.792 59.7816C222.681 57.502 222.681 57.502 222.307 56.7355C221.756 55.6057 221.2 54.4785 220.629 53.3582C219.31 50.7639 218.112 48.1453 217.025 45.4447C217.093 46.6945 217.204 47.9311 217.357 49.1739C217.626 51.4632 217.614 53.754 217.606 56.055C217.605 56.4765 217.605 56.898 217.604 57.3195C217.603 58.1402 217.601 58.9609 217.599 59.7816C215.706 59.7816 213.814 59.7816 211.864 59.7816C211.864 52.401 211.864 45.0203 211.864 37.416ZM216.796 44.9859C216.91 45.2153 216.91 45.2153 216.91 45.2153L216.796 44.9859Z" fill="black"/>
        <path d="M206.361 39.1861C208.542 41.0407 209.684 43.7542 209.996 46.5584C210.261 50.048 209.886 53.9948 207.514 56.7654C207.436 56.8523 207.357 56.9393 207.276 57.0289C207.2 57.1158 207.123 57.2027 207.045 57.2923C205.315 59.1496 202.83 60.0559 200.33 60.1579C197.401 60.2275 194.665 59.549 192.48 57.4876C189.697 54.507 189.263 50.8832 189.363 46.9585C189.397 46.0037 189.562 45.095 189.842 44.183C189.867 44.1008 189.893 44.0187 189.919 43.934C190.683 41.5386 192.131 39.4283 194.38 38.2229C198.089 36.3441 203.076 36.5416 206.361 39.1861ZM196.839 43.4948C195.679 44.9153 195.417 46.6723 195.426 48.4554C195.427 48.5809 195.428 48.7065 195.428 48.8358C195.455 50.7133 195.812 52.6619 197.183 54.0468C198.063 54.7725 198.907 55.0239 200.043 54.9997C201.035 54.8997 201.793 54.4271 202.459 53.7027C203.832 52.0205 204.129 49.5832 203.925 47.4813C203.727 45.777 203.366 44.0882 201.977 42.9424C200.299 41.7586 198.219 41.9925 196.839 43.4948Z" fill="black"/>
        <path d="M88.3367 37.416C100.492 37.416 100.492 37.416 103.67 40.4196C106.02 42.8528 106.397 46.0696 106.368 49.3009C106.311 52.1076 105.502 54.9246 103.47 56.9505C99.3777 60.6793 93.4054 59.7816 88.3367 59.7816C88.3367 52.401 88.3367 45.0203 88.3367 37.416ZM94.3008 42.2332C94.3008 46.4345 94.3008 50.6358 94.3008 54.9644C96.1487 54.8324 97.6102 54.7003 98.9245 53.3443C100.341 51.6471 100.41 49.1991 100.23 47.0961C100.031 45.6238 99.5348 44.1377 98.3241 43.1902C97.1103 42.4053 95.72 42.2332 94.3008 42.2332Z" fill="black"/>
        <path d="M137.944 9.78161C138.158 9.96676 138.368 10.1542 138.573 10.3479C138.388 10.7979 138.079 11.118 137.749 11.4662C137.634 11.5893 137.519 11.7125 137.405 11.8358C137.321 11.9252 137.321 11.9252 137.236 12.0164C136.976 12.2976 136.726 12.5868 136.475 12.8761C136.107 13.2983 135.734 13.7151 135.362 14.1329C134.987 13.9577 134.657 13.7411 134.315 13.5092C133.068 12.7207 131.774 12.5762 130.327 12.8103C129.012 13.1588 128.018 13.9495 127.28 15.0778C126.166 17.0918 126.103 19.672 126.73 21.8502C127.143 23.0674 127.756 24.0361 128.903 24.6562C130.399 25.3379 131.945 25.4809 133.527 25.0289C133.565 24.0448 133.602 23.0608 133.641 22.0468C132.582 22.0468 131.522 22.0468 130.43 22.0468C130.43 20.4193 130.43 18.7918 130.43 17.1149C133.231 17.1149 136.032 17.1149 138.917 17.1149C138.959 19.7734 138.959 19.7734 138.968 20.9082C138.974 21.682 138.981 22.4557 138.995 23.2294C139.006 23.8534 139.013 24.4772 139.015 25.1013C139.017 25.3391 139.021 25.577 139.027 25.8148C139.068 27.679 139.068 27.679 138.695 28.2162C138.431 28.4255 138.192 28.5643 137.885 28.6992C137.75 28.7831 137.615 28.868 137.481 28.9541C134.297 30.6719 130.713 31.0403 127.236 30.0018C125.844 29.5574 124.637 28.8664 123.548 27.8963C123.461 27.82 123.374 27.7437 123.284 27.6651C121.427 25.9326 120.314 23.2285 120.204 20.7075C120.199 20.304 120.196 19.9006 120.194 19.4971C120.193 19.2406 120.19 18.9843 120.186 18.7278C120.178 17.6108 120.297 16.5952 120.566 15.5092C120.588 15.4215 120.609 15.3337 120.632 15.2434C121.313 12.7002 122.985 10.4139 125.256 9.07289C129.305 6.80425 134.272 6.77115 137.944 9.78161Z" fill="black"/>
        <path d="M107.95 37.416C109.918 37.416 111.886 37.416 113.914 37.416C113.918 38.3979 113.922 39.3798 113.927 40.3914C113.931 41.0955 113.935 41.7997 113.939 42.5039C113.945 43.4142 113.95 44.3246 113.954 45.235C113.956 45.9562 113.96 46.6774 113.965 47.3986C113.968 47.7798 113.97 48.1609 113.971 48.5421C113.866 51.6454 113.866 51.6454 115.211 54.3192C116.099 54.8559 116.9 54.9643 117.928 54.8497C118.589 54.6604 119.266 54.3309 119.658 53.7476C120.724 51.816 120.473 49.3429 120.488 47.2166C120.49 46.9333 120.492 46.65 120.495 46.3667C120.501 45.6255 120.507 44.8843 120.512 44.1431C120.519 43.2514 120.527 42.3597 120.534 41.468C120.545 40.1173 120.556 38.7667 120.566 37.416C122.459 37.416 124.351 37.416 126.301 37.416C126.31 40.6294 126.31 40.6294 126.312 42.23C126.314 43.0916 126.315 43.9532 126.318 44.8149C126.321 45.5712 126.322 46.3275 126.323 47.0838C126.323 47.3709 126.324 47.6579 126.325 47.945C126.34 51.5064 126.18 55.2374 123.636 57.9953C121.689 59.8905 119.064 60.1756 116.476 60.1508C114.213 60.097 112.072 59.3736 110.416 57.7977C107.958 55.1474 107.895 51.3306 107.916 47.9447C107.917 47.6394 107.917 47.3341 107.917 47.0288C107.919 46.3139 107.921 45.5991 107.925 44.8843C107.929 43.9883 107.931 43.0924 107.933 42.1965C107.936 40.603 107.943 39.0095 107.95 37.416Z" fill="black"/>
        <path d="M151.763 37.416C154.148 37.416 156.532 37.416 158.989 37.416C159.91 40.1792 159.91 40.1792 160.284 41.4254C160.35 41.6438 160.415 41.8623 160.481 42.0807C160.551 42.3103 160.62 42.5401 160.689 42.7698C160.912 43.5134 161.137 44.2568 161.362 45.0001C161.414 45.1739 161.467 45.3478 161.519 45.5216C162.199 47.7727 162.887 50.0212 163.575 52.2697C163.626 52.4356 163.677 52.6015 163.728 52.7674C163.753 52.8488 163.777 52.9301 163.803 53.014C163.998 53.651 164.193 54.2881 164.387 54.9252C164.543 55.4351 164.699 55.9447 164.856 56.4543C164.964 56.8069 165.072 57.1597 165.179 57.5125C165.231 57.6807 165.282 57.8489 165.334 58.017C165.406 58.2488 165.476 58.4808 165.547 58.7128C165.588 58.8448 165.628 58.9768 165.67 59.1128C165.756 59.4375 165.756 59.4375 165.756 59.7816C163.675 59.7816 161.593 59.7816 159.448 59.7816C159.176 58.7619 158.907 57.7489 158.674 56.7207C158.649 56.6119 158.623 56.5032 158.597 56.3912C158.573 56.2865 158.55 56.1819 158.525 56.0742C158.504 55.9818 158.483 55.8895 158.461 55.7943C158.416 55.5379 158.416 55.5379 158.416 55.0791C156.372 55.0791 154.328 55.0791 152.222 55.0791C152.146 55.5333 152.071 55.9875 151.993 56.4554C151.931 56.7436 151.865 57.0311 151.795 57.3175C151.763 57.4491 151.731 57.5807 151.698 57.7163C151.658 57.8774 151.618 58.0385 151.577 58.2045C151.449 58.725 151.322 59.2454 151.19 59.7816C149.184 59.7816 147.178 59.7816 145.111 59.7816C145.188 59.1676 145.256 58.6993 145.432 58.1274C145.475 57.9874 145.518 57.8474 145.562 57.7031C145.609 57.5508 145.657 57.3985 145.704 57.2462C145.754 57.0841 145.804 56.922 145.854 56.7599C145.96 56.4124 146.068 56.0651 146.175 55.7179C146.346 55.1654 146.516 54.6126 146.686 54.0597C146.863 53.485 147.04 52.9103 147.217 52.3357C147.769 50.5452 148.315 48.7531 148.859 46.9605C149.01 46.4656 149.16 45.9707 149.311 45.4759C149.36 45.3144 149.409 45.1529 149.458 44.9914C149.482 44.9123 149.506 44.8332 149.531 44.7518C149.649 44.363 149.768 43.9743 149.886 43.5855C150.294 42.2434 150.703 40.9014 151.111 39.5594C151.326 38.8521 151.542 38.1448 151.763 37.416ZM155.204 41.8891C155.188 41.9641 155.172 42.039 155.155 42.1163C154.984 42.9054 154.813 43.6945 154.641 44.4835C154.578 44.7769 154.514 45.0703 154.451 45.3638C153.805 48.3451 153.805 48.3451 153.444 49.7124C153.356 50.0335 153.356 50.0335 153.369 50.3766C154.656 50.3766 155.943 50.3766 157.269 50.3766C156.872 48.5716 156.455 46.7716 156.036 44.9716C155.966 44.6715 155.896 44.3715 155.827 44.0715C155.657 43.344 155.488 42.6166 155.319 41.8891C155.281 41.8891 155.243 41.8891 155.204 41.8891Z" fill="black"/>
        <path d="M71.2471 37.416C76.0161 37.416 80.7851 37.416 85.6987 37.416C85.6987 39.0814 85.6987 40.7468 85.6987 42.4626C82.8978 42.4626 80.097 42.4626 77.2112 42.4626C77.2112 43.5981 77.2112 44.7336 77.2112 45.9035C79.5957 45.9035 81.9803 45.9035 84.437 45.9035C84.437 47.531 84.437 49.1585 84.437 50.8354C82.0525 50.8354 79.668 50.8354 77.2112 50.8354C77.2112 52.1223 77.2112 53.4091 77.2112 54.735C80.1256 54.735 83.04 54.735 86.0428 54.735C86.0428 56.4004 86.0428 58.0658 86.0428 59.7816C81.1602 59.7816 76.2776 59.7816 71.2471 59.7816C71.2471 52.401 71.2471 45.0203 71.2471 37.416Z" fill="black"/>
        <path d="M97.7419 7.82446C102.511 7.82446 107.28 7.82446 112.194 7.82446C112.194 9.48984 112.194 11.1552 112.194 12.8711C109.393 12.8711 106.592 12.8711 103.706 12.8711C103.706 14.0065 103.706 15.142 103.706 16.3119C106.091 16.3119 108.475 16.3119 110.932 16.3119C110.932 17.9394 110.932 19.567 110.932 21.2438C108.547 21.2438 106.163 21.2438 103.706 21.2438C103.706 22.5307 103.706 23.8176 103.706 25.1435C106.621 25.1435 109.535 25.1435 112.538 25.1435C112.538 26.8088 112.538 28.4742 112.538 30.1901C107.655 30.1901 102.772 30.1901 97.7419 30.1901C97.7419 22.8094 97.7419 15.4288 97.7419 7.82446Z" fill="black"/>
        <path d="M144.946 39.4504C145.201 39.6866 145.332 39.848 145.455 40.1686C145.357 40.2738 145.258 40.3791 145.157 40.4876C144.24 41.47 144.24 41.47 143.348 42.4755C142.985 42.8957 142.613 43.3092 142.243 43.7241C141.868 43.548 141.534 43.3316 141.19 43.1005C140.142 42.4359 139.249 42.2151 138 42.3478C136.702 42.6509 135.741 43.3085 134.993 44.4051C134.226 45.7184 133.94 47.1227 133.95 48.6274C133.95 48.7376 133.951 48.8478 133.951 48.9613C133.98 50.7326 134.377 52.4828 135.636 53.7945C136.774 54.7533 137.937 54.9338 139.376 54.8496C140.273 54.7013 141.217 54.2777 141.86 53.6238C142.014 53.4732 142.014 53.4732 142.243 53.4732C142.243 53.3975 142.243 53.3218 142.243 53.2438C142.631 53.3099 142.807 53.4248 143.07 53.7138C143.137 53.7864 143.204 53.859 143.273 53.9338C143.342 54.0113 143.412 54.0888 143.484 54.1686C143.555 54.247 143.627 54.3254 143.701 54.4062C143.904 54.6295 144.106 54.8539 144.308 55.079C144.395 55.176 144.482 55.2729 144.571 55.3729C144.951 55.8029 145.319 56.2422 145.684 56.6847C145.504 57.128 145.229 57.3921 144.881 57.717C144.818 57.7786 144.754 57.8403 144.688 57.9038C143.02 59.4546 140.763 60.1753 138.509 60.1614C138.399 60.1608 138.29 60.1603 138.177 60.1597C135.3 60.1128 132.704 59.1142 130.613 57.1085C129.899 56.3643 129.41 55.528 128.939 54.6202C128.883 54.5151 128.828 54.4099 128.77 54.3016C127.965 52.6698 127.769 50.8854 127.764 49.0884C127.763 48.8319 127.76 48.5755 127.756 48.3191C127.748 47.2021 127.867 46.1865 128.136 45.1005C128.158 45.0127 128.179 44.925 128.201 44.8346C128.924 42.1397 130.742 39.8324 133.138 38.4271C137.181 36.2611 141.386 36.6837 144.946 39.4504Z" fill="black"/>
        <path d="M150.157 7.82446C154.964 7.82446 159.771 7.82446 164.724 7.82446C164.724 9.48984 164.724 11.1552 164.724 12.8711C161.885 12.8711 159.046 12.8711 156.122 12.8711C156.122 14.2336 156.122 15.5962 156.122 17.0001C158.544 17.0001 160.966 17.0001 163.462 17.0001C163.462 18.6655 163.462 20.3308 163.462 22.0467C161.04 22.0467 158.617 22.0467 156.122 22.0467C156.122 24.734 156.122 27.4213 156.122 30.1901C154.153 30.1901 152.185 30.1901 150.157 30.1901C150.157 22.8094 150.157 15.4288 150.157 7.82446Z" fill="black"/>
        <path d="M162.774 37.416C168.603 37.416 174.432 37.416 180.437 37.416C180.437 39.0814 180.437 40.7468 180.437 42.4626C178.507 42.4626 176.576 42.4626 174.588 42.4626C174.588 48.1779 174.588 53.8931 174.588 59.7816C172.619 59.7816 170.651 59.7816 168.623 59.7816C168.623 54.0663 168.623 48.3511 168.623 42.4626C166.693 42.4626 164.763 42.4626 162.774 42.4626C162.774 40.7972 162.774 39.1319 162.774 37.416Z" fill="black"/>
        <path d="M165.297 7.82446C171.126 7.82446 176.955 7.82446 182.96 7.82446C182.96 9.48984 182.96 11.1552 182.96 12.8711C181.03 12.8711 179.1 12.8711 177.111 12.8711C177.111 18.5485 177.111 24.2259 177.111 30.0754C175.143 30.0754 173.175 30.0754 171.147 30.0754C171.147 24.3979 171.147 18.7205 171.147 12.8711C169.217 12.8711 167.286 12.8711 165.297 12.8711C165.297 11.2057 165.297 9.54031 165.297 7.82446Z" fill="black"/>
        <path d="M181.469 37.416C183.438 37.416 185.406 37.416 187.434 37.416C187.434 44.7967 187.434 52.1773 187.434 59.7816C185.465 59.7816 183.497 59.7816 181.469 59.7816C181.469 52.401 181.469 45.0203 181.469 37.416Z" fill="black"/>
        <path d="M141.326 7.82446C143.294 7.82446 145.262 7.82446 147.29 7.82446C147.29 15.2051 147.29 22.5858 147.29 30.1901C145.322 30.1901 143.354 30.1901 141.326 30.1901C141.326 22.8094 141.326 15.4288 141.326 7.82446Z" fill="black"/>
    </g>
    <defs>
        <clipPath id="clip0_1053_1438">
            <rect width="57.0251" height="67.6062" fill="white"/>
        </clipPath>
        <clipPath id="clip1_1053_1438">
            <rect width="160.918" height="52.6452" fill="white" transform="translate(69.0681 7.48047)"/>
        </clipPath>
    </defs>
</svg>
