<svg width="14" height="14" viewBox="0 0 14 14" fill="none" xmlns="http://www.w3.org/2000/svg">
<g clip-path="url(#clip0_255_5165)">
<path d="M12.8975 2.12183C12.8975 2.12183 12.1434 5.53433 9.32755 6.77085C8.89845 6.95874 8.5506 7.28882 8.33732 7.70522L7.2049 9.91167C7.2049 9.91167 9.38849 10.973 10.3813 9.11694C10.3813 9.11694 9.76935 9.17788 9.50782 9.09663C9.50782 9.09663 12.0317 9.11187 12.6207 7.00952C12.6207 7.00952 12.0063 7.4437 11.7016 7.4564C11.7016 7.4564 13.1108 6.70991 13.1666 4.85386C13.1666 4.85386 12.1002 6.18179 11.4197 6.47378C11.4172 6.47378 13.7811 5.05698 12.8975 2.12183Z" fill="#97744C"/>
<path d="M0.435767 2.12183C0.435767 2.12183 1.18987 5.53433 4.00569 6.77085C4.43479 6.95874 4.78264 7.28882 4.99592 7.70522L6.12835 9.91167C6.12835 9.91167 3.94475 10.973 2.95198 9.11694C2.95198 9.11694 3.56389 9.17788 3.82542 9.09663C3.82542 9.09663 1.30413 9.11187 0.712525 7.00952C0.712525 7.00952 1.32698 7.4437 1.63167 7.4564C1.63167 7.4564 0.222485 6.70991 0.166626 4.85386C0.166626 4.85386 1.23303 6.18179 1.9135 6.47378C1.91604 6.47378 -0.447827 5.05698 0.435767 2.12183Z" fill="#97744C"/>
<path d="M6.18677 6.21472H7.14653V9.46472H6.18677V6.21472Z" fill="#383128"/>
<path d="M5.58246 10.3737C5.58246 9.77451 6.06742 9.28955 6.66664 9.28955C7.26586 9.28955 7.75082 9.77451 7.75082 10.3737H5.58246Z" fill="#97744C"/>
<path d="M5.14319 10.3738H8.19006C8.46936 10.3738 8.69788 10.6023 8.69788 10.8816V11.7703H4.63538V10.8816C4.63538 10.6023 4.86389 10.3738 5.14319 10.3738Z" fill="#4D7382"/>
<path d="M4.31799 11.7703H9.01526C9.4012 11.7703 9.7135 12.0826 9.7135 12.4685C9.7135 12.8544 9.4012 13.1667 9.01526 13.1667H4.31799C3.93206 13.1667 3.61975 12.8544 3.61975 12.4685C3.61975 12.0826 3.93206 11.7703 4.31799 11.7703Z" fill="#97744C"/>
<path d="M7.55305 0.789545L7.55303 0.789498C7.17836 0.0458312 6.15492 0.0458312 5.78025 0.789498L5.78022 0.789545L4.91094 2.51147L4.89627 2.54053L4.86422 2.54619L3.01782 2.87223L3.01778 2.87224C2.2222 3.01217 1.9008 4.02842 2.46887 4.63163L2.46889 4.63165L3.77934 6.02413L3.80072 6.04685L3.79637 6.07774L3.52514 8.0034L7.55305 0.789545ZM7.55305 0.789545L8.42233 2.51147L8.437 2.54053M7.55305 0.789545L8.437 2.54053M8.437 2.54053L8.46906 2.54619M8.437 2.54053L8.46906 2.54619M8.46906 2.54619L10.3155 2.87223L10.3155 2.87224M8.46906 2.54619L10.3155 2.87224M10.3155 2.87224C11.1111 3.01217 11.4325 4.02842 10.8644 4.63163L10.8643 4.63171M10.3155 2.87224L10.8643 4.63171M10.8643 4.63171L9.55715 6.02419L9.53583 6.0469M10.8643 4.63171L9.53583 6.0469M9.53583 6.0469L9.54017 6.07774M9.53583 6.0469L9.54017 6.07774M9.54017 6.07774L9.81141 8.0034C9.92905 8.84317 9.09563 9.46205 8.37614 9.09135L8.37607 9.09131M9.54017 6.07774L8.37607 9.09131M8.37607 9.09131L6.69633 8.22865L6.66661 8.21338M8.37607 9.09131L6.66661 8.21338M6.66661 8.21338L6.6369 8.22867M6.66661 8.21338L6.6369 8.22867M6.6369 8.22867L4.96043 9.09133L4.9604 9.09135M6.6369 8.22867L4.9604 9.09135M4.9604 9.09135C4.24093 9.46204 3.40752 8.8432 3.52513 8.00345L4.9604 9.09135Z" fill="#97744C" stroke="#383128" stroke-width="0.13"/>
</g>
<defs>
<clipPath id="clip0_255_5165">
<rect width="13" height="13" fill="white" transform="translate(0.166626 0.166748)"/>
</clipPath>
</defs>
</svg>
