<svg width="25" height="25" viewBox="0 0 25 25" fill="none" xmlns="http://www.w3.org/2000/svg">
<rect width="25" height="25" rx="12.5" fill="white" fill-opacity="0.1"/>
<path d="M12.5626 7.95492C13.3126 7.41492 14.1826 7.14492 15.1651 7.14492C15.7051 7.14492 16.2976 7.28742 16.9426 7.58742C17.5876 7.87992 18.0976 8.22492 18.4726 8.62242C19.2451 9.58242 19.5676 10.6999 19.4551 11.9749C19.3351 13.2499 18.9151 14.2474 18.1876 14.9524L12.4951 20.6449C12.3526 20.7874 12.1726 20.8549 11.9626 20.8549C11.7526 20.8549 11.5801 20.7874 11.4376 20.6449C11.3683 20.5766 11.3138 20.4948 11.2777 20.4044C11.2415 20.314 11.2245 20.2172 11.2276 20.1199C11.2276 19.9099 11.2951 19.7299 11.4376 19.5874L14.8801 16.1449C15.0676 15.9799 15.0676 15.8074 14.8801 15.6199C14.6926 15.4324 14.5201 15.4324 14.3551 15.6199L10.9126 19.0624C10.8432 19.1323 10.76 19.1871 10.6684 19.2232C10.5767 19.2594 10.4786 19.2761 10.3801 19.2724C10.1701 19.2724 9.9976 19.2049 9.8551 19.0624C9.78575 18.9941 9.7313 18.9123 9.69516 18.8219C9.65902 18.7315 9.64197 18.6347 9.6451 18.5374C9.6451 18.3274 9.7126 18.1474 9.8551 18.0049L13.2976 14.5624C13.5001 14.3749 13.5001 14.1874 13.2976 13.9999C13.1251 13.8124 12.9601 13.8124 12.7726 13.9999L9.3301 17.4799C9.2599 17.5488 9.1766 17.6028 9.08513 17.6389C8.99366 17.675 8.89589 17.6923 8.7976 17.6899C8.5876 17.6899 8.4076 17.6224 8.2501 17.4799C8.1001 17.3374 8.0251 17.1649 8.0251 16.9549C8.0251 16.7449 8.1076 16.5574 8.2726 16.3924L11.7226 12.9424C11.9101 12.7549 11.9101 12.5824 11.7226 12.4174C11.5351 12.2524 11.3551 12.2524 11.1901 12.4174L7.7101 15.8749C7.5451 16.0249 7.3726 16.1074 7.1851 16.1074C6.9751 16.1074 6.7951 16.0324 6.6601 15.8749C6.5176 15.7249 6.4426 15.5449 6.4426 15.3349C6.4426 15.1249 6.5176 14.9524 6.6601 14.8099C8.9551 12.4999 10.3726 11.1049 10.9126 10.5874L13.5826 13.2274C13.8751 13.5049 14.2126 13.6474 14.6251 13.6474C15.1501 13.6474 15.5626 13.4374 15.8701 13.0174C16.0801 12.7099 16.1551 12.3724 16.0951 11.9974C16.0351 11.6224 15.8776 11.3074 15.6226 11.0449L12.5626 7.95492ZM14.1076 12.7024L10.9126 9.49992L5.6026 14.8099C4.9726 14.1724 4.6126 13.1974 4.5301 11.8699C4.4476 10.5499 4.8076 9.40242 5.6026 8.44242C6.4951 7.55742 7.5601 7.10742 8.7976 7.10742C10.0426 7.10742 11.1001 7.55742 11.9626 8.44242L15.1651 11.6449C15.3076 11.7874 15.3751 11.9599 15.3751 12.1699C15.3751 12.3799 15.3076 12.5599 15.1651 12.7024C15.0226 12.8374 14.8501 12.9124 14.6251 12.9124C14.4226 12.9124 14.2501 12.8374 14.1076 12.7024Z" fill="#EE79E0"/>
</svg>
