<svg width="21" height="20" viewBox="0 0 21 20" fill="none" xmlns="http://www.w3.org/2000/svg">
<path d="M9.875 15.2084H8C7.08333 15.2084 6.33333 15.9584 6.33333 16.875V17.0834H5.5C5.15833 17.0834 4.875 17.3667 4.875 17.7084C4.875 18.05 5.15833 18.3334 5.5 18.3334H15.5C15.8417 18.3334 16.125 18.05 16.125 17.7084C16.125 17.3667 15.8417 17.0834 15.5 17.0834H14.6667V16.875C14.6667 15.9584 13.9167 15.2084 13 15.2084H11.125V13.3C10.9167 13.325 10.7083 13.3334 10.5 13.3334C10.2917 13.3334 10.0833 13.325 9.875 13.3V15.2084Z" fill="white"/>
<path d="M15.8999 9.70008C16.4499 9.49175 16.9332 9.15008 17.3166 8.76675C18.0916 7.90841 18.5999 6.88341 18.5999 5.68341C18.5999 4.48341 17.6582 3.54175 16.4582 3.54175H15.9916C15.4499 2.43341 14.3166 1.66675 12.9999 1.66675H7.9999C6.68324 1.66675 5.5499 2.43341 5.00824 3.54175H4.54157C3.34157 3.54175 2.3999 4.48341 2.3999 5.68341C2.3999 6.88341 2.90824 7.90841 3.68324 8.76675C4.06657 9.15008 4.5499 9.49175 5.0999 9.70008C5.96657 11.8334 8.0499 13.3334 10.4999 13.3334C12.9499 13.3334 15.0332 11.8334 15.8999 9.70008ZM12.8666 7.04175L12.3499 7.67508C12.2666 7.76675 12.2082 7.95008 12.2166 8.07508L12.2666 8.89175C12.2999 9.39175 11.9416 9.65008 11.4749 9.46675L10.7166 9.16675C10.5999 9.12508 10.3999 9.12508 10.2832 9.16675L9.5249 9.46675C9.05824 9.65008 8.6999 9.39175 8.73324 8.89175L8.78324 8.07508C8.79157 7.95008 8.73324 7.76675 8.6499 7.67508L8.13324 7.04175C7.80824 6.65841 7.9499 6.23341 8.43324 6.10841L9.2249 5.90841C9.3499 5.87508 9.4999 5.75841 9.56657 5.65008L10.0082 4.96675C10.2832 4.54175 10.7166 4.54175 10.9916 4.96675L11.4332 5.65008C11.4999 5.75841 11.6499 5.87508 11.7749 5.90841L12.5666 6.10841C13.0499 6.23341 13.1916 6.65841 12.8666 7.04175Z" fill="white"/>
</svg>
