<svg width="88" height="34" viewBox="0 0 88 34" fill="none" xmlns="http://www.w3.org/2000/svg">
<g clip-path="url(#clip0_519_7182)">
<path d="M32.7813 27.5486H0.0874023V29.3091H32.7813V27.5486Z" fill="white"/>
<path d="M52.7002 26.3643C53.9267 26.3643 54.726 27.1892 54.726 28.5499C54.726 29.5836 54.1127 30.6424 52.7178 30.6424C51.4737 30.6424 50.697 29.7596 50.697 28.4568C50.697 27.4005 51.3631 26.3643 52.7002 26.3643ZM53.61 28.4744C53.61 27.6922 53.2355 27.3175 52.7178 27.3175C52.1171 27.3175 51.7778 27.7903 51.7778 28.5146C51.7778 29.1686 52.1347 29.6842 52.6951 29.6842C53.321 29.6842 53.6125 29.2063 53.6125 28.4744H53.61ZM57.0081 27.6218C57.6968 27.6218 58.2874 28.1349 58.2874 29.1057C58.2874 30.0765 57.6565 30.5594 56.9377 30.5669C56.5532 30.5669 56.2315 30.3859 56.1837 30.3104C56.1837 30.5041 56.2063 31.7415 56.1535 31.7767C56.1008 31.8169 55.3015 31.8521 55.1909 31.7943C55.1733 31.7893 55.2085 27.735 55.2613 27.6042C55.2663 27.5866 56.136 27.6344 56.136 27.6344C56.136 27.6696 56.1309 27.9161 56.1309 27.9488C56.1711 27.8783 56.4803 27.6218 57.0056 27.6218H57.0081ZM57.2996 29.1183C57.2996 28.7209 57.0609 28.5096 56.7442 28.5096C56.3471 28.5096 56.1611 28.7611 56.1611 29.1107C56.1611 29.4955 56.43 29.7294 56.7216 29.7294C57.0885 29.7294 57.2996 29.4779 57.2996 29.1157V29.1183ZM59.5139 29.3396C59.5139 29.6489 59.7351 29.8426 60.1397 29.8426C60.4539 29.8426 60.6701 29.7319 60.8234 29.6389C60.8812 29.6967 61.12 30.1821 61.1275 30.2702C60.9692 30.416 60.567 30.6022 60.0945 30.6022C59.0389 30.6022 58.6116 29.8954 58.6116 29.1484C58.6116 28.3587 59.1017 27.6243 60.0191 27.6243C60.7957 27.6243 61.2683 28.2078 61.2683 28.8617C61.2683 29.0428 61.2507 29.1937 61.2155 29.3119C60.9239 29.3522 59.8658 29.3522 59.5164 29.3421L59.5139 29.3396ZM59.5089 28.8014L60.4263 28.7838C60.4388 28.497 60.2931 28.2757 60.0116 28.2757C59.7074 28.2757 59.5089 28.5046 59.5089 28.8014ZM61.698 27.7199C61.7508 27.6444 62.5677 27.6092 62.6204 27.662C62.6154 27.7853 62.6079 27.9764 62.6029 28.0116C62.731 27.818 63.0176 27.6017 63.4901 27.6017C64.126 27.6017 64.5231 28.1097 64.5231 28.8642C64.5231 29.2566 64.5004 30.2425 64.4753 30.5292C64.4703 30.5871 63.5931 30.577 63.5755 30.5644C63.5529 30.5519 63.5806 29.1736 63.5806 28.9648C63.5806 28.6505 63.4398 28.4266 63.1357 28.4266C62.814 28.4266 62.623 28.6781 62.623 28.9045C62.623 29.1032 62.6179 30.5041 62.6003 30.5292C62.5827 30.5519 61.7307 30.5418 61.7131 30.5066C61.7006 30.4839 61.6779 28.9573 61.6955 27.7199H61.698ZM67.2174 28.497C67.2174 29.332 67.7301 29.6665 68.2278 29.6665C68.7254 29.6665 69.022 29.415 69.1502 29.322C69.2834 29.415 69.5423 29.8879 69.6353 30.0866C69.3839 30.3733 68.7933 30.6525 68.1222 30.6525C66.7549 30.6525 66.1191 29.6766 66.1191 28.4568C66.1191 27.237 66.9485 26.3768 68.273 26.3768C68.9441 26.3768 69.4292 26.5881 69.6101 26.7616C69.6101 26.8773 69.3638 27.5086 69.218 27.6319C69.0069 27.5086 68.6525 27.3502 68.2831 27.3502C67.6824 27.3502 67.2149 27.828 67.2149 28.4945L67.2174 28.497ZM69.9168 28.2405C69.9218 28.1424 70.3088 27.5916 71.0905 27.5916C71.8144 27.5916 72.3748 28.0192 72.3748 28.8718C72.3748 29.498 72.3447 30.4663 72.3271 30.5016C72.3095 30.5368 71.5731 30.5016 71.5731 30.5016L71.5203 30.25C71.4801 30.2903 71.2338 30.572 70.7738 30.572C70.1379 30.572 69.869 30.1972 69.869 29.6892C69.869 29.1811 70.3315 28.8315 70.9146 28.8315C71.1835 28.8315 71.3469 28.907 71.4574 28.99C71.4625 28.7385 71.475 28.3939 70.9498 28.3939C70.5878 28.3939 70.4194 28.6505 70.3666 28.658C70.3139 28.658 69.9117 28.3084 69.9168 28.243V28.2405ZM70.6532 29.6716C70.6532 29.8652 70.8165 29.9985 71.0327 29.9985C71.2891 29.9985 71.4172 29.8476 71.4172 29.6716C71.4172 29.4679 71.2488 29.3396 71.0327 29.3396C70.804 29.3396 70.6532 29.4855 70.6532 29.6716ZM72.9479 27.6847C73.0007 27.5966 73.8175 27.6495 73.8703 27.7023C73.8653 27.8255 73.8577 27.984 73.8527 28.0167C73.9809 27.823 74.202 27.6193 74.6771 27.6193C75.0038 27.6193 75.2677 27.7828 75.4235 28.0393C75.6221 27.6897 76.067 27.6193 76.3057 27.6193C77.0422 27.6193 77.3689 28.1047 77.3689 28.8517C77.3689 29.249 77.3463 30.2601 77.3287 30.5342C77.3237 30.5871 76.4364 30.5871 76.4188 30.5695C76.4013 30.5569 76.4314 29.2189 76.4314 28.9447C76.4314 28.6706 76.356 28.4417 76.0469 28.4417C75.7377 28.4417 75.6322 28.7561 75.6322 28.9372C75.6322 29.3572 75.6146 30.2224 75.597 30.5141C75.5919 30.5669 74.7098 30.5317 74.6972 30.5192C74.6746 30.5066 74.7022 29.1409 74.7022 28.9422C74.7022 28.6555 74.6193 28.4392 74.3177 28.4392C74.0161 28.4392 73.8854 28.6957 73.8854 28.8844C73.8854 29.0529 73.8728 30.5317 73.8552 30.5544C73.8376 30.577 72.9856 30.5669 72.968 30.5317C72.9554 30.5091 72.9328 28.9196 72.9504 27.6796L72.9479 27.6847ZM79.7516 27.6193C80.4402 27.6193 81.0309 28.1324 81.0309 29.1032C81.0309 30.074 80.4 30.5569 79.6812 30.5644C79.2966 30.5644 78.9749 30.3833 78.9272 30.3079C78.9272 30.5016 78.9498 31.739 78.897 31.7742C78.8442 31.8144 78.045 31.8496 77.9344 31.7918C77.9168 31.7868 77.952 27.7325 78.0048 27.6017C78.0098 27.5841 78.8794 27.6319 78.8794 27.6319C78.8794 27.6671 78.8744 27.9135 78.8744 27.9462C78.9146 27.8758 79.2238 27.6193 79.7491 27.6193H79.7516ZM80.0431 29.1157C80.0431 28.7184 79.8044 28.5071 79.4877 28.5071C79.0906 28.5071 78.9046 28.7586 78.9046 29.1082C78.9046 29.493 79.1735 29.7269 79.465 29.7269C79.832 29.7269 80.0431 29.4754 80.0431 29.1132V29.1157ZM84.2254 30.5192C84.1726 30.5946 83.4135 30.572 83.3557 30.5192C83.3608 30.3959 83.3557 30.2274 83.3608 30.1872C83.2326 30.3733 82.9335 30.6198 82.4962 30.6198C81.7899 30.6198 81.4506 30.1872 81.4506 29.3698C81.4506 28.9498 81.5084 27.9513 81.526 27.6746C81.5386 27.6168 82.4132 27.6268 82.4308 27.6444C82.4434 27.7098 82.3831 29.0403 82.3831 29.2692C82.3831 29.5961 82.5238 29.7948 82.8279 29.7948C83.1497 29.7948 83.318 29.5483 83.3231 29.2918C83.3231 29.1233 83.3457 27.6847 83.3708 27.662C83.3884 27.6394 84.2354 27.6495 84.258 27.6847C84.2631 27.7073 84.2455 29.2742 84.2229 30.5192H84.2254ZM85.9194 30.6298C85.3363 30.6298 84.8034 30.3959 84.723 30.3079C84.6753 30.25 84.9442 29.6137 84.9919 29.6364C85.0849 29.6842 85.4469 29.9457 85.8214 29.9457C86.0551 29.9457 86.1707 29.8627 86.1707 29.7345C86.1707 29.6062 86.0777 29.5358 85.6982 29.4653C85.0447 29.3547 84.7406 29.0805 84.7406 28.5901C84.7406 27.9638 85.1679 27.6017 85.8842 27.6017C86.4221 27.6017 86.8946 27.7828 86.97 27.8582C87.0227 27.911 86.7538 28.5247 86.7136 28.5297C86.6834 28.5297 86.3115 28.3009 85.9722 28.3009C85.7434 28.3009 85.6454 28.4115 85.6454 28.5297C85.6454 28.658 85.7434 28.7159 86.0827 28.7636C86.7764 28.8617 87.0881 29.1032 87.0881 29.6464C87.0881 30.1595 86.7387 30.6273 85.9194 30.6273V30.6298Z" fill="white"/>
<path d="M41.7443 23.4066C40.7314 23.4191 39.7461 23.7235 38.9092 24.2843C38.0722 24.8427 37.4263 25.6324 37.0468 26.5504C36.6673 27.4684 36.5743 28.477 36.7804 29.4478C36.9865 30.4186 37.4791 31.3064 38.2004 32.0031C38.9218 32.6998 39.8366 33.1726 40.8294 33.3612C41.8247 33.5499 42.8527 33.4467 43.7876 33.0645C44.7226 32.6822 45.5194 32.0383 46.0823 31.2134C46.6428 30.3884 46.9444 29.4201 46.9444 28.4292C46.9369 27.0886 46.384 25.806 45.4088 24.8653C44.4336 23.9247 43.1166 23.399 41.7468 23.4066H41.7443Z" fill="#00EDBE"/>
<path d="M43.7974 26.5703C43.7823 26.3188 43.8451 26.0698 43.9783 25.8535H39.7886C39.7509 25.8535 39.7131 25.8611 39.678 25.8736C39.6428 25.8887 39.6126 25.9088 39.585 25.934C39.5573 25.9591 39.5372 25.9918 39.5221 26.0245C39.5071 26.0572 39.4995 26.095 39.4995 26.1327V27.0079C39.4995 27.0457 39.5071 27.0809 39.5221 27.1161C39.5372 27.1488 39.5573 27.1815 39.585 27.2066C39.6126 27.2318 39.6428 27.2519 39.678 27.267C39.7131 27.2821 39.7509 27.2871 39.7886 27.2871H43.9783C43.8476 27.0708 43.7848 26.8218 43.7974 26.5703Z" fill="#141BEB"/>
<path d="M38.8465 28.4416C38.8591 28.6932 38.7962 28.9421 38.6655 29.1584H42.8553C42.893 29.1584 42.9307 29.1509 42.9659 29.1383C43.0011 29.1232 43.0312 29.1031 43.0589 29.078C43.0865 29.0528 43.1066 29.0201 43.1217 28.9874C43.1368 28.9547 43.1443 28.917 43.1443 28.8793V28.004C43.1443 27.9663 43.1368 27.9311 43.1217 27.8959C43.1066 27.8632 43.0865 27.8305 43.0589 27.8053C43.0312 27.7802 43.0011 27.7601 42.9659 27.745C42.9307 27.7299 42.893 27.7249 42.8553 27.7249H38.6655C38.7962 27.9411 38.8591 28.1901 38.8465 28.4416Z" fill="#141BEB"/>
<path d="M43.7974 30.3125C43.7823 30.061 43.8451 29.812 43.9783 29.5957H39.7886C39.7509 29.5957 39.7131 29.6032 39.678 29.6158C39.6428 29.6309 39.6126 29.651 39.585 29.6762C39.5573 29.7013 39.5372 29.734 39.5221 29.7667C39.5071 29.7994 39.4995 29.8372 39.4995 29.8749V30.7501C39.4995 30.7878 39.5071 30.8231 39.5221 30.8583C39.5372 30.891 39.5573 30.9237 39.585 30.9488C39.6126 30.974 39.6428 30.9941 39.678 31.0092C39.7131 31.0243 39.7509 31.0293 39.7886 31.0293H43.9783C43.8476 30.813 43.7848 30.564 43.7974 30.3125Z" fill="#141BEB"/>
<path d="M0.0874023 21.2458H9.04254V18.2378H3.09088V12.0784H8.27596V9.24895H3.09088V3.08702H9.04254V0.257568H0.0874023V21.2458Z" fill="white"/>
<path d="M14.6977 0.257568H10.249V21.2458H14.4313C16.2183 21.2458 17.5881 20.7806 18.5406 19.8449C19.4932 18.9119 19.9682 17.4632 19.9682 15.4964V5.68258C19.9682 3.95472 19.5208 2.61671 18.6286 1.67355C17.7338 0.730402 16.4244 0.257568 14.6952 0.257568H14.6977ZM16.9647 15.7907C16.9647 16.6936 16.7888 17.3575 16.4344 17.7801C16.08 18.2026 15.4819 18.4139 14.6374 18.4139H13.2525V3.08702H14.6374C15.5221 3.08702 16.1303 3.31338 16.4646 3.76609C16.7989 4.21881 16.9647 4.85763 16.9647 5.68258V15.7932V15.7907Z" fill="white"/>
<path d="M44.9308 1.46735C44.0461 0.544316 42.8975 0.081543 41.485 0.081543C40.7587 0.081543 40.0951 0.204781 39.4969 0.448743C38.8988 0.69522 38.381 1.03476 37.9512 1.46483C37.5189 1.89742 37.1846 2.40798 36.9509 2.99651C36.7146 3.58504 36.5965 4.22387 36.5965 4.913V8.46176L36.408 8.56991L34.2943 9.78972L32.1805 8.56991L31.7809 8.33852V0.257598H28.7774V16.2333C28.7774 16.9803 28.6015 17.5311 28.2471 17.8832C27.8927 18.2378 27.4529 18.4139 26.9226 18.4139C26.3922 18.4139 25.9499 18.2378 25.598 17.8832C25.2436 17.5286 25.0677 16.9803 25.0677 16.2333V0.257598H22.0642V16.5301C22.0642 17.2192 22.1924 17.853 22.4462 18.4315C22.7001 19.0125 23.0545 19.5281 23.5069 19.9783C23.9593 20.431 24.4745 20.7831 25.0526 21.0396C25.6307 21.2937 26.254 21.4219 26.9226 21.4219C27.5911 21.4219 28.2194 21.2937 28.8076 21.0396C29.3957 20.7856 29.916 20.431 30.3684 19.9783C30.8208 19.5256 31.1676 19.01 31.4139 18.4315C31.6603 17.853 31.7834 17.2192 31.7834 16.5301V11.8672L32.183 11.6358L34.2968 10.416L36.4105 11.6358L36.599 11.7439V16.4698C36.599 17.433 36.7498 18.2228 37.0565 18.8415C37.3606 19.4602 37.7476 19.9657 38.2201 20.3606C38.6927 20.7529 39.223 21.0296 39.8111 21.1855C40.3992 21.3414 40.9798 21.4219 41.5478 21.4219C42.2164 21.4219 42.8397 21.2886 43.4178 21.0245C43.9959 20.7605 44.5036 20.4008 44.9359 19.9481C45.3682 19.4954 45.7075 18.9798 45.9513 18.4013C46.1976 17.8229 46.3207 17.2067 46.3207 16.5603V15.2625H43.3173V16.2937C43.3173 16.7062 43.2595 17.0507 43.1413 17.3249C43.0232 17.599 42.8749 17.8153 42.699 17.9738C42.5029 18.1322 42.2918 18.2454 42.0656 18.3133C41.8394 18.3812 41.6283 18.4164 41.4322 18.4164C40.7436 18.4164 40.2685 18.2102 40.0046 17.7977C39.7407 17.3852 39.6075 16.8747 39.6075 16.266V5.53422C39.6075 4.82748 39.7307 4.24147 39.9745 3.78121C40.2208 3.32096 40.7159 3.08957 41.4624 3.08957C42.0329 3.08957 42.4828 3.30586 42.8171 3.73846C43.1514 4.17105 43.3173 4.68161 43.3173 5.27014V6.27365H46.3207V5.09408C46.3207 4.36723 46.1976 3.69319 45.9513 3.07448C45.705 2.45577 45.3657 1.92006 44.9359 1.46735H44.9308Z" fill="white"/>
<path d="M54.7406 9.24895H51.0284V0.257568H48.0249V21.2458H51.0284V11.9023H54.7406V21.2458H57.7441V0.257568H54.7406V9.24895Z" fill="white"/>
<path d="M63.1656 0.257568L58.4832 21.2433H61.4866L62.3713 16.7338H66.4656L67.3503 21.2433H70.3538L65.6689 0.257568H63.1656ZM62.9017 13.9043L64.3745 6.29877H64.4323L65.9051 13.9043H62.9017Z" fill="white"/>
<path d="M74.179 0.257568H71.1755V21.2433H74.179V0.257568Z" fill="white"/>
<path d="M83.7247 0.257568V12.9033H83.6669L79.1303 0.257568H76.2424V21.2458H79.2484V8.63024H79.3062L83.9007 21.2458H86.7282V0.257568H83.7247Z" fill="white"/>
</g>
<defs>
<clipPath id="clip0_519_7182">
<rect width="87.0003" height="33.37" fill="white" transform="translate(0.0874023 0.081543)"/>
</clipPath>
</defs>
</svg>
