<svg width="17" height="17" viewBox="0 0 17 17" fill="none" xmlns="http://www.w3.org/2000/svg">
<g clip-path="url(#clip0_315_650)">
<path d="M13.1246 5.54296C12.9797 5.4593 12.8014 5.46023 12.6574 5.54387C12.513 5.62754 12.4238 5.78205 12.4238 5.94892V6.95237C12.4238 7.47039 12.0541 7.84346 11.5373 7.70392C11.1135 7.58883 10.8978 7.16898 11.0179 6.78322L11.2268 6.1103C11.8239 4.18659 10.9155 2.71455 8.66859 1.96621C8.62019 1.95026 8.57178 1.9625 8.52275 1.96243C8.38881 1.96228 8.25767 1.99929 8.16664 2.10334C8.04274 2.24643 8.01715 2.45031 8.10172 2.61946C8.49442 3.40532 8.38425 4.65927 7.89462 4.97379C7.5504 5.19596 6.76729 4.9148 5.59835 3.46474C5.4987 3.34041 5.34646 3.27318 5.18371 3.29284C5.02555 3.30976 4.88658 3.40622 4.81524 3.54885C4.21363 4.75252 4.2406 5.99233 4.89432 7.13475C5.15662 7.59126 4.94422 8.19346 4.36811 8.28861C3.88623 8.36769 3.49821 7.98027 3.49821 7.4991V7.04468C3.49821 6.87004 3.40131 6.71003 3.24633 6.62958C3.09182 6.54865 2.90485 6.56008 2.76176 6.66113C1.44561 7.58231 1.01952 9.35513 1.62846 11.288C2.39191 13.7105 4.877 16.3493 8.52279 16.3493C11.1135 16.3493 14.4242 14.548 15.461 11.2679C16.1426 9.11335 15.1544 6.70597 13.1246 5.54296Z" fill="#E8A354"/>
<path d="M15.4609 11.2679C16.1426 9.11332 15.1544 6.70594 13.1246 5.54297C12.9797 5.4593 12.8014 5.46023 12.6574 5.54387C12.5129 5.62754 12.4238 5.78205 12.4238 5.94892V6.95236C12.4238 7.47039 12.054 7.84346 11.5372 7.70392C11.1134 7.58883 10.8978 7.16898 11.0179 6.78322L11.2268 6.1103C11.8238 4.18659 10.9154 2.71455 8.66854 1.96621C8.62014 1.95026 8.57173 1.9625 8.52271 1.96243V16.3493C11.1134 16.3493 14.4241 14.5479 15.4609 11.2679Z" fill="#E1763B"/>
<path d="M15.0765 4.14681C13.7859 4.14681 12.7358 3.06554 12.7358 1.77498V0.83873C12.7358 0.579982 12.9452 0.370605 13.204 0.370605C14.4945 0.370605 15.5446 1.45188 15.5446 2.74244V3.67869C15.5446 3.93744 15.3352 4.14681 15.0765 4.14681Z" fill="#E8A354"/>
<path d="M1.03258 6.01941C0.77383 6.01941 0.564453 5.81004 0.564453 5.55129V4.61504C0.564453 3.32448 1.61452 2.27441 2.90508 2.27441C3.16383 2.27441 3.3732 2.48379 3.3732 2.74254V3.67879C3.3732 4.96935 2.32314 6.01941 1.03258 6.01941Z" fill="#F5DB48"/>
<path d="M8.52286 9.45315C8.18956 9.3613 7.84542 9.29639 7.48331 9.29639H7.30592C7.13312 9.29639 6.97449 9.39148 6.8931 9.54371C6.81171 9.69595 6.82042 9.88064 6.91641 10.0242C7.1075 10.3113 7.17426 10.6683 7.09973 11.0039C7.02705 11.3321 6.83093 11.6073 6.54794 11.7788C5.9326 12.1523 5.62036 12.763 5.62036 13.5936C5.62036 15.0959 7.02018 16.3495 8.52283 16.3495C10.2212 16.3495 11.4253 14.9368 11.4253 13.2384C11.4253 11.4268 10.1904 9.91263 8.52286 9.45315Z" fill="#F5DB48"/>
<path d="M11.4252 13.2382C11.4252 11.4265 10.1902 9.91239 8.52271 9.45288V16.3492C10.221 16.3492 11.4252 14.9365 11.4252 13.2382Z" fill="#E8A354"/>
</g>
<defs>
<clipPath id="clip0_315_650">
<rect width="15.9787" height="15.9787" fill="white" transform="translate(0.130615 0.370605)"/>
</clipPath>
</defs>
</svg>
