<svg width="58" height="64" viewBox="0 0 58 64" fill="none" xmlns="http://www.w3.org/2000/svg">
<rect x="0.41333" y="0.818604" width="57.0667" height="57.0667" rx="28.5333" fill="url(#paint0_linear_255_6682)"/>
<g filter="url(#filter0_d_255_6682)">
<rect x="8.40283" y="8.80786" width="41.088" height="41.088" rx="20.544" fill="white" shape-rendering="crispEdges"/>
<g clip-path="url(#clip0_255_6682)">
<path d="M39.8874 21.3716C39.8874 21.3716 38.5633 27.3636 33.619 29.5348C32.8656 29.8647 32.2548 30.4443 31.8803 31.1755L29.8918 35.0497C29.8918 35.0497 33.726 36.9133 35.4692 33.6543C35.4692 33.6543 34.3948 33.7613 33.9356 33.6186C33.9356 33.6186 38.3671 33.6454 39.4015 29.9539C39.4015 29.9539 38.3226 30.7162 37.7876 30.7385C37.7876 30.7385 40.2619 29.4278 40.36 26.1687C40.36 26.1687 38.4875 28.5005 37.2927 29.0132C37.2882 29.0132 41.4389 26.5254 39.8874 21.3716Z" fill="#FFCE00"/>
<path d="M18.006 21.3716C18.006 21.3716 19.3302 27.3636 24.2744 29.5348C25.0279 29.8647 25.6387 30.4443 26.0132 31.1755L28.0016 35.0497C28.0016 35.0497 24.1674 36.9133 22.4242 33.6543C22.4242 33.6543 23.4987 33.7613 23.9579 33.6186C23.9579 33.6186 19.5308 33.6454 18.492 29.9539C18.492 29.9539 19.5709 30.7162 20.1059 30.7385C20.1059 30.7385 17.6315 29.4278 17.5334 26.1687C17.5334 26.1687 19.4059 28.5005 20.6008 29.0132C20.6052 29.0132 16.4545 26.5254 18.006 21.3716Z" fill="#FFCE00"/>
<path d="M28.1042 28.5583H29.7895V34.265H28.1042V28.5583Z" fill="#FFB000"/>
<path d="M27.043 35.861C27.043 34.8088 27.8945 33.9573 28.9467 33.9573C29.9988 33.9573 30.8504 34.8088 30.8504 35.861H27.043Z" fill="#FFCE00"/>
<path d="M26.2718 35.8611H31.6218C32.1122 35.8611 32.5135 36.2623 32.5135 36.7528V38.3132H25.3801V36.7528C25.3801 36.2623 25.7814 35.8611 26.2718 35.8611Z" fill="#4D7382"/>
<path d="M24.8227 38.3132H33.0706C33.7483 38.3132 34.2967 38.8616 34.2967 39.5393C34.2967 40.2169 33.7483 40.7653 33.0706 40.7653H24.8227C24.1451 40.7653 23.5967 40.2169 23.5967 39.5393C23.5967 38.8616 24.1451 38.3132 24.8227 38.3132Z" fill="#FFCE00"/>
<path d="M30.2351 18.7188L31.421 20.9792L33.9399 21.4072C35.0991 21.6033 35.5583 23.0211 34.738 23.8592L32.9547 25.6872L33.3247 28.215C33.4941 29.3787 32.2904 30.2525 31.2382 29.7309L28.9466 28.5985L26.6595 29.7309C25.6073 30.2525 24.4036 29.3787 24.573 28.215L24.943 25.6872L23.1552 23.8592C22.3349 23.0211 22.7941 21.6033 23.9533 21.4072L26.4722 20.9792L27.6582 18.7188C28.2021 17.68 29.6912 17.68 30.2351 18.7188Z" fill="#FFCE00"/>
</g>
</g>
<defs>
<filter id="filter0_d_255_6682" x="0.413499" y="6.5252" width="57.0666" height="57.0666" filterUnits="userSpaceOnUse" color-interpolation-filters="sRGB">
<feFlood flood-opacity="0" result="BackgroundImageFix"/>
<feColorMatrix in="SourceAlpha" type="matrix" values="0 0 0 0 0 0 0 0 0 0 0 0 0 0 0 0 0 0 127 0" result="hardAlpha"/>
<feOffset dy="5.70667"/>
<feGaussianBlur stdDeviation="3.99467"/>
<feComposite in2="hardAlpha" operator="out"/>
<feColorMatrix type="matrix" values="0 0 0 0 0 0 0 0 0 0 0 0 0 0 0 0 0 0 0.34 0"/>
<feBlend mode="normal" in2="BackgroundImageFix" result="effect1_dropShadow_255_6682"/>
<feBlend mode="normal" in="SourceGraphic" in2="effect1_dropShadow_255_6682" result="shape"/>
</filter>
<linearGradient id="paint0_linear_255_6682" x1="28.9467" y1="0.818604" x2="28.9467" y2="57.8853" gradientUnits="userSpaceOnUse">
<stop stop-color="#FFCE00"/>
<stop offset="1" stop-color="#CE0BB7"/>
</linearGradient>
<clipPath id="clip0_255_6682">
<rect width="22.8267" height="22.8267" fill="white" transform="translate(17.5334 17.9385)"/>
</clipPath>
</defs>
</svg>
