<svg width="50" height="55" viewBox="0 0 50 55" fill="none" xmlns="http://www.w3.org/2000/svg">
<rect width="50" height="50" rx="25" fill="#00EDBE"/>
<g filter="url(#filter0_d_493_1512)">
<rect x="7" y="7" width="36" height="36" rx="18" fill="white" shape-rendering="crispEdges"/>
<g clip-path="url(#clip0_493_1512)">
<path d="M34.5859 18.0078C34.5859 18.0078 33.4258 23.2578 29.0938 25.1602C28.4336 25.4492 27.8984 25.957 27.5703 26.5977L25.8281 29.9922C25.8281 29.9922 29.1875 31.625 30.7148 28.7695C30.7148 28.7695 29.7734 28.8633 29.3711 28.7383C29.3711 28.7383 33.2539 28.7617 34.1602 25.5273C34.1602 25.5273 33.2148 26.1953 32.7461 26.2148C32.7461 26.2148 34.9141 25.0664 35 22.2109C35 22.2109 33.3594 24.2539 32.3125 24.7031C32.3086 24.7031 35.9453 22.5234 34.5859 18.0078Z" fill="#FFB000"/>
<path d="M15.4141 18.0078C15.4141 18.0078 16.5742 23.2578 20.9063 25.1602C21.5664 25.4492 22.1016 25.957 22.4297 26.5977L24.1719 29.9922C24.1719 29.9922 20.8125 31.625 19.2852 28.7695C19.2852 28.7695 20.2266 28.8633 20.6289 28.7383C20.6289 28.7383 16.75 28.7617 15.8398 25.5273C15.8398 25.5273 16.7852 26.1953 17.2539 26.2148C17.2539 26.2148 15.0859 25.0664 15 22.2109C15 22.2109 16.6406 24.2539 17.6875 24.7031C17.6914 24.7031 14.0547 22.5234 15.4141 18.0078Z" fill="#FFB000"/>
<path d="M24.2617 24.3047H25.7383V29.3047H24.2617V24.3047Z" fill="#FFB000"/>
<path d="M23.332 30.7031C23.332 29.7813 24.0781 29.0352 25 29.0352C25.9219 29.0352 26.668 29.7813 26.668 30.7031H23.332Z" fill="#FFB000"/>
<path d="M22.6562 30.7031H27.3438C27.7734 30.7031 28.125 31.0547 28.125 31.4844V32.8516H21.875V31.4844C21.875 31.0547 22.2266 30.7031 22.6562 30.7031Z" fill="#4D7382"/>
<path d="M21.3867 32.8516H28.6133C29.207 32.8516 29.6875 33.332 29.6875 33.9258C29.6875 34.5195 29.207 35 28.6133 35H21.3867C20.793 35 20.3125 34.5195 20.3125 33.9258C20.3125 33.332 20.793 32.8516 21.3867 32.8516Z" fill="#FFB000"/>
<path d="M26.1289 15.6836L27.1679 17.6641L29.375 18.0391C30.3906 18.2109 30.7929 19.4531 30.0742 20.1875L28.5117 21.7891L28.8359 24.0039C28.9843 25.0234 27.9297 25.7891 27.0078 25.332L25 24.3398L22.9961 25.332C22.0742 25.7891 21.0195 25.0234 21.1679 24.0039L21.4922 21.7891L19.9257 20.1875C19.207 19.4531 19.6093 18.2109 20.625 18.0391L22.832 17.6641L23.8711 15.6836C24.3476 14.7734 25.6523 14.7734 26.1289 15.6836Z" fill="#FFB000"/>
</g>
</g>
<defs>
<filter id="filter0_d_493_1512" x="0" y="5" width="50" height="50" filterUnits="userSpaceOnUse" color-interpolation-filters="sRGB">
<feFlood flood-opacity="0" result="BackgroundImageFix"/>
<feColorMatrix in="SourceAlpha" type="matrix" values="0 0 0 0 0 0 0 0 0 0 0 0 0 0 0 0 0 0 127 0" result="hardAlpha"/>
<feOffset dy="5"/>
<feGaussianBlur stdDeviation="3.5"/>
<feComposite in2="hardAlpha" operator="out"/>
<feColorMatrix type="matrix" values="0 0 0 0 0 0 0 0 0 0 0 0 0 0 0 0 0 0 0.34 0"/>
<feBlend mode="normal" in2="BackgroundImageFix" result="effect1_dropShadow_493_1512"/>
<feBlend mode="normal" in="SourceGraphic" in2="effect1_dropShadow_493_1512" result="shape"/>
</filter>
<clipPath id="clip0_493_1512">
<rect width="20" height="20" fill="white" transform="translate(15 15)"/>
</clipPath>
</defs>
</svg>
