<svg width="25" height="25" viewBox="0 0 25 25" fill="none" xmlns="http://www.w3.org/2000/svg">
<rect width="25" height="25" rx="12.5" fill="white" fill-opacity="0.1"/>
<path d="M16.4455 10.2H15.75V8.25C15.75 8.25 15.75 5 12.5 5C9.25005 5 9.25005 8.25 9.25005 8.25V10.2H8.55455C8.22183 10.2 7.90275 10.3322 7.66748 10.5674C7.43222 10.8027 7.30005 11.1218 7.30005 11.4545V16.752C7.30177 17.0836 7.4347 17.401 7.66977 17.6349C7.90485 17.8687 8.22296 18 8.55455 18H16.4455C16.7783 18 17.0973 17.8678 17.3326 17.6326C17.5679 17.3973 17.7 17.0782 17.7 16.7455V11.4545C17.7 11.1218 17.5679 10.8027 17.3326 10.5674C17.0973 10.3322 16.7783 10.2 16.4455 10.2ZM10.55 8.575C10.55 7.6 10.55 6.3 12.5 6.3C14.45 6.3 14.45 7.6 14.45 8.575V10.2H10.55V8.575ZM12.5 15.4C12.2429 15.4 11.9916 15.3238 11.7778 15.1809C11.564 15.0381 11.3974 14.835 11.299 14.5975C11.2006 14.3599 11.1749 14.0986 11.225 13.8464C11.2752 13.5942 11.399 13.3626 11.5808 13.1808C11.7626 12.999 11.9943 12.8751 12.2464 12.825C12.4986 12.7748 12.76 12.8006 12.9975 12.899C13.2351 12.9974 13.4381 13.164 13.581 13.3778C13.7238 13.5915 13.8 13.8429 13.8 14.1C13.8 14.4448 13.6631 14.7754 13.4193 15.0192C13.1755 15.263 12.8448 15.4 12.5 15.4Z" fill="#1570EF"/>
</svg>
