<svg width="21" height="20" viewBox="0 0 21 20" fill="none" xmlns="http://www.w3.org/2000/svg">
<path d="M14.6667 2.91675H6.33342C3.83341 2.91675 2.16675 4.16675 2.16675 7.08342V12.9167C2.16675 15.8334 3.83341 17.0834 6.33342 17.0834H14.6667C17.1667 17.0834 18.8334 15.8334 18.8334 12.9167V7.08342C18.8334 4.16675 17.1667 2.91675 14.6667 2.91675ZM5.70841 12.0834C5.70841 12.4251 5.42508 12.7084 5.08341 12.7084C4.74175 12.7084 4.45841 12.4251 4.45841 12.0834V7.91675C4.45841 7.57508 4.74175 7.29175 5.08341 7.29175C5.42508 7.29175 5.70841 7.57508 5.70841 7.91675V12.0834ZM10.5001 12.5001C9.11675 12.5001 8.00008 11.3834 8.00008 10.0001C8.00008 8.61675 9.11675 7.50008 10.5001 7.50008C11.8834 7.50008 13.0001 8.61675 13.0001 10.0001C13.0001 11.3834 11.8834 12.5001 10.5001 12.5001ZM16.5417 12.0834C16.5417 12.4251 16.2584 12.7084 15.9167 12.7084C15.5751 12.7084 15.2917 12.4251 15.2917 12.0834V7.91675C15.2917 7.57508 15.5751 7.29175 15.9167 7.29175C16.2584 7.29175 16.5417 7.57508 16.5417 7.91675V12.0834Z" fill="white"/>
</svg>
