<svg width="44" height="45" viewBox="0 0 44 45" fill="none" xmlns="http://www.w3.org/2000/svg">
<g filter="url(#filter0_b_255_6640)">
<rect x="0.41333" y="0.914551" width="43.3707" height="43.3707" rx="21.6853" fill="white" fill-opacity="0.7"/>
<g clip-path="url(#clip0_255_6640)">
<path d="M26.4547 13.6534H17.6473C16.3357 13.6534 15.2725 12.5901 15.2725 11.2786C15.2725 9.96702 16.3357 8.90381 17.6473 8.90381H26.4547C27.7664 8.90381 28.8296 9.96702 28.8296 11.2786C28.8296 12.5902 27.7664 13.6534 26.4547 13.6534Z" fill="#FD6041"/>
<path d="M26.6179 24.6232H17.5166L17.5994 11.8286C17.5994 11.4238 17.9275 11.0957 18.3322 11.0957H25.9678C26.3725 11.0957 26.7007 11.4238 26.7007 11.8286L26.6179 24.6232Z" fill="#92BEE2"/>
<path d="M23.9177 24.6232H20.217L20.2998 11.0957H24.0004L23.9177 24.6232Z" fill="white"/>
<path d="M22.5881 21.6771L23.9856 21.2247C24.7751 20.9691 25.6333 21.3246 26.0108 22.0635L26.6792 23.3717C26.8409 23.6883 27.0984 23.9459 27.4151 24.1076L28.7233 24.776C29.4622 25.1536 29.8177 26.0116 29.5621 26.8012L29.1097 28.1987C29.0002 28.537 29.0002 28.9013 29.1097 29.2396L29.5621 30.6372C29.8177 31.4266 29.4623 32.2849 28.7233 32.6623L27.4151 33.3306C27.0984 33.4924 26.8408 33.7499 26.6792 34.0666L26.0108 35.3748C25.6332 36.1137 24.7751 36.4692 23.9856 36.2136L22.5881 35.7613C22.2498 35.6517 21.8855 35.6517 21.5472 35.7613L20.1495 36.2136C19.3601 36.4692 18.5019 36.1138 18.1244 35.3748L17.456 34.0666C17.2943 33.7499 17.0367 33.4924 16.7201 33.3306L15.4119 32.6623C14.673 32.2848 14.3175 31.4266 14.5731 30.6372L15.0255 29.2396C15.135 28.9013 15.135 28.537 15.0255 28.1987L14.5731 26.8012C14.3176 26.0116 14.673 25.1535 15.4119 24.776L16.7201 24.1076C17.0368 23.9458 17.2943 23.6883 17.456 23.3717L18.1244 22.0635C18.5019 21.3246 19.3601 20.9691 20.1495 21.2247L21.5472 21.6771C21.8855 21.7866 22.2498 21.7866 22.5881 21.6771Z" fill="#FEAA3A"/>
<path d="M17.3652 23.5996C17.2427 23.8122 17.0391 23.9866 16.8025 24.1075L15.4943 24.7759C14.7292 25.1667 14.4448 25.8513 14.6109 26.6314L24.2378 36.2582C24.9775 36.4157 25.7427 36.061 26.0933 35.3748L26.7617 34.0666C26.8826 33.83 27.057 33.6264 27.2368 33.4712L17.3652 23.5996Z" fill="#FFC299"/>
<path d="M29.6599 30.8251L20.0115 21.1765C19.3547 21.0377 18.6468 21.3418 18.2424 21.9436L28.8929 32.594C29.5274 32.2225 29.8316 31.5145 29.6599 30.8251Z" fill="#FFC299"/>
<path d="M22.5432 23.4005L23.5988 23.0588C24.195 22.8658 24.8431 23.1342 25.1283 23.6923L25.633 24.6803C25.7552 24.9194 25.9497 25.1139 26.1888 25.2361L27.144 25.7409C27.7021 26.026 28.0033 26.6741 27.8103 27.2703L27.4686 28.3258C27.3859 28.5814 27.3859 28.8564 27.4686 29.1119L27.8103 30.1674C28.0033 30.7637 27.7349 31.4117 27.1768 31.6969L26.1888 32.2016C25.9497 32.3239 25.7552 32.5183 25.633 32.7575L25.1283 33.7454C24.8431 34.3036 24.195 34.5719 23.5988 34.379L22.5432 34.0373C22.2878 33.9546 22.0127 33.9546 21.7572 34.0373L20.7016 34.379C20.1054 34.5719 19.4573 34.3036 19.1722 33.7454L18.6674 32.7575C18.5453 32.5183 18.3508 32.3239 18.1116 32.2016L17.1236 31.6969C16.5655 31.4117 16.2971 30.7637 16.49 30.1674L16.8317 29.1119C16.9144 28.8564 16.9144 28.5814 16.8317 28.3258L16.49 27.2703C16.297 26.6741 16.5327 26.026 17.0908 25.7409L18.1116 25.2361C18.3508 25.1139 18.5453 24.9194 18.6674 24.6803L19.1722 23.6923C19.4574 23.1342 20.1054 22.8658 20.7016 23.0588L21.7572 23.4005C22.0128 23.4832 22.2878 23.4832 22.5432 23.4005Z" fill="#EF8535"/>
<path d="M26.0394 32.2735L18.5629 24.7971C18.4746 24.982 18.3098 25.135 18.1116 25.2362L17.0908 25.741C16.5327 26.0261 16.297 26.6742 16.49 27.2704L16.8317 28.326C16.8919 28.512 16.907 28.7082 16.8796 28.8999L21.9694 33.9896C22.161 33.9622 22.3573 33.9773 22.5432 34.0375L23.5987 34.3792C24.195 34.5721 24.8431 34.3038 25.1283 33.7456L25.633 32.7577C25.7343 32.5595 25.8872 32.3947 26.0394 32.2735Z" fill="#EF9C62"/>
<path d="M22.2844 23.4495C22.13 23.4742 21.9388 23.4592 21.7573 23.4005L20.7018 23.0588C20.3058 22.9306 19.8875 23.0069 19.5344 23.2355L27.6009 31.3021C27.8623 30.9819 27.9387 30.5636 27.8105 30.1675L27.4688 29.112C27.41 28.9305 27.3951 28.7393 27.387 28.5521L22.2844 23.4495Z" fill="#EF9C62"/>
<path d="M22.6815 25.1479L23.2875 26.376C23.412 26.5617 23.5892 26.6905 23.7941 26.7202L25.1494 26.9172C25.6655 26.9922 25.8717 27.6265 25.4981 27.9906L24.5175 28.9464C24.3691 29.091 24.3015 29.2993 24.3365 29.5035L24.5679 30.8532C24.6562 31.3673 24.1165 31.7593 23.6548 31.5166L22.4427 30.8793C22.2593 30.7829 22.0403 30.7829 21.857 30.8793L20.6448 31.5166C20.1832 31.7593 19.6435 31.3673 19.7317 30.8532L19.9632 29.5035C19.9982 29.2993 19.9305 29.091 19.7822 28.9464L18.8016 27.9906C18.4281 27.6265 18.6341 26.9922 19.1503 26.9172L20.5055 26.7202C20.7105 26.6905 20.8877 26.5617 20.9465 26.376L21.5526 25.1479C21.8164 24.6802 22.4834 24.6802 22.6815 25.1479Z" fill="white"/>
</g>
</g>
<defs>
<filter id="filter0_b_255_6640" x="-22.4133" y="-21.9121" width="89.0239" height="89.0239" filterUnits="userSpaceOnUse" color-interpolation-filters="sRGB">
<feFlood flood-opacity="0" result="BackgroundImageFix"/>
<feGaussianBlur in="BackgroundImageFix" stdDeviation="11.4133"/>
<feComposite in2="SourceAlpha" operator="in" result="effect1_backgroundBlur_255_6640"/>
<feBlend mode="normal" in="SourceGraphic" in2="effect1_backgroundBlur_255_6640" result="shape"/>
</filter>
<clipPath id="clip0_255_6640">
<rect width="27.392" height="27.392" fill="white" transform="translate(8.40283 8.90381)"/>
</clipPath>
</defs>
</svg>
