<svg width="21" height="20" viewBox="0 0 21 20" fill="none" xmlns="http://www.w3.org/2000/svg">
<path d="M10.5001 1.66675C8.31675 1.66675 6.54175 3.44175 6.54175 5.62508C6.54175 7.76675 8.21675 9.50008 10.4001 9.57508C10.4667 9.56675 10.5334 9.56675 10.5834 9.57508C10.6001 9.57508 10.6084 9.57508 10.6251 9.57508C10.6334 9.57508 10.6334 9.57508 10.6417 9.57508C12.7751 9.50008 14.4501 7.76675 14.4584 5.62508C14.4584 3.44175 12.6834 1.66675 10.5001 1.66675Z" fill="white"/>
<path d="M14.7333 11.7917C12.4083 10.2417 8.61663 10.2417 6.27497 11.7917C5.21663 12.5 4.6333 13.4583 4.6333 14.4833C4.6333 15.5083 5.21663 16.4583 6.26663 17.1583C7.4333 17.9417 8.96663 18.3333 10.5 18.3333C12.0333 18.3333 13.5666 17.9417 14.7333 17.1583C15.7833 16.45 16.3666 15.5 16.3666 14.4667C16.3583 13.4417 15.7833 12.4917 14.7333 11.7917Z" fill="white"/>
</svg>
