<svg width="20" height="20" viewBox="0 0 20 20" fill="none" xmlns="http://www.w3.org/2000/svg">
<path fill-rule="evenodd" clip-rule="evenodd" d="M4.23248 4.22418C7.39498 1.06585 12.5366 1.09918 15.7183 4.28168C18.9016 7.46502 18.935 12.6092 15.7716 15.7717C12.6083 18.9342 7.46498 18.9017 4.28164 15.7184C3.38612 14.8267 2.70951 13.7396 2.30494 12.5424C1.90037 11.3451 1.77887 10.0704 1.94998 8.81835C1.97241 8.65403 2.0592 8.50535 2.19126 8.40501C2.32332 8.30468 2.48982 8.26092 2.65414 8.28335C2.81847 8.30578 2.96715 8.39258 3.06748 8.52463C3.16781 8.65669 3.21158 8.82319 3.18914 8.98752C3.04388 10.0486 3.14671 11.1289 3.48955 12.1436C3.83239 13.1582 4.40589 14.0795 5.16498 14.835C7.86915 17.5384 12.2216 17.5542 14.8883 14.8884C17.5541 12.2217 17.5383 7.86918 14.835 5.16502C12.1325 2.46335 7.78248 2.44585 5.11581 5.10835L5.73915 5.11085C5.82122 5.11123 5.90242 5.12778 5.9781 5.15954C6.05378 5.19131 6.12247 5.23766 6.18023 5.29597C6.238 5.35428 6.28371 5.42339 6.31477 5.49937C6.34583 5.57534 6.36161 5.65669 6.36123 5.73877C6.36085 5.82084 6.3443 5.90204 6.31254 5.97772C6.28077 6.05341 6.23442 6.12209 6.17611 6.17986C6.1178 6.23762 6.04869 6.28334 5.97271 6.31439C5.89674 6.34545 5.81539 6.36123 5.73331 6.36085L3.61164 6.35085C3.44689 6.34997 3.28915 6.28408 3.17274 6.16751C3.05632 6.05093 2.99063 5.8931 2.98998 5.72835L2.97914 3.60835C2.97871 3.52628 2.99444 3.44492 3.02544 3.36892C3.05645 3.29292 3.10212 3.22378 3.15985 3.16543C3.21757 3.10709 3.28623 3.06068 3.36189 3.02887C3.43755 2.99706 3.51874 2.98046 3.60081 2.98002C3.68289 2.97958 3.76425 2.99531 3.84024 3.02632C3.91624 3.05732 3.98538 3.10299 4.04373 3.16072C4.10208 3.21845 4.14848 3.2871 4.18029 3.36276C4.21211 3.43842 4.22871 3.51961 4.22914 3.60168L4.23248 4.22418ZM9.99915 6.04085C10.1649 6.04085 10.3239 6.1067 10.4411 6.22391C10.5583 6.34112 10.6241 6.50009 10.6241 6.66585V9.74085L12.525 11.6409C12.5847 11.6985 12.6323 11.7674 12.6651 11.8437C12.6979 11.9199 12.7152 12.0019 12.716 12.0849C12.7167 12.1679 12.701 12.2502 12.6696 12.327C12.6382 12.4038 12.5918 12.4736 12.5331 12.5323C12.4745 12.5911 12.4047 12.6375 12.3279 12.669C12.2511 12.7004 12.1688 12.7163 12.0859 12.7156C12.0029 12.7149 11.9209 12.6977 11.8446 12.665C11.7683 12.6323 11.6993 12.5847 11.6416 12.525L9.37498 10.2584V6.66668C9.37498 6.50092 9.44083 6.34195 9.55804 6.22474C9.67525 6.10753 9.83422 6.04168 9.99998 6.04168" fill="white"/>
</svg>
