<svg width="25" height="25" viewBox="0 0 25 25" fill="none" xmlns="http://www.w3.org/2000/svg">
<rect width="25" height="25" rx="12.5" fill="white" fill-opacity="0.1"/>
<path d="M13 11.25C13.4125 11.25 13.7657 11.1033 14.0598 10.8098C14.3538 10.5163 14.5005 10.163 14.5 9.75C14.4995 9.337 14.3527 8.984 14.0598 8.691C13.7667 8.398 13.4135 8.251 13 8.25C12.5865 8.249 12.2335 8.396 11.941 8.691C11.6485 8.986 11.5015 9.339 11.5 9.75C11.4985 10.161 11.6455 10.5143 11.941 10.8098C12.2365 11.1052 12.5895 11.252 13 11.25ZM9.25 11.1V8.25H7.75V9C7.75 9.475 7.8875 9.90325 8.1625 10.2847C8.4375 10.6663 8.8 10.938 9.25 11.1ZM16.75 11.1C17.2 10.9375 17.5625 10.6655 17.8375 10.284C18.1125 9.9025 18.25 9.4745 18.25 9V8.25H16.75V11.1ZM12.25 17.25V14.925C11.6375 14.7875 11.0907 14.5282 10.6097 14.1473C10.1287 13.7662 9.7755 13.288 9.55 12.7125C8.6125 12.6 7.82825 12.1907 7.19725 11.4847C6.56625 10.7787 6.2505 9.9505 6.25 9V8.25C6.25 7.8375 6.397 7.4845 6.691 7.191C6.985 6.8975 7.338 6.7505 7.75 6.75H9.25C9.25 6.3375 9.397 5.9845 9.691 5.691C9.985 5.3975 10.338 5.2505 10.75 5.25H15.25C15.6625 5.25 16.0157 5.397 16.3097 5.691C16.6038 5.985 16.7505 6.338 16.75 6.75H18.25C18.6625 6.75 19.0157 6.897 19.3097 7.191C19.6038 7.485 19.7505 7.838 19.75 8.25V9C19.75 9.95 19.4342 10.7782 18.8027 11.4847C18.1712 12.1912 17.387 12.6005 16.45 12.7125C16.225 13.2875 15.872 13.7657 15.391 14.1473C14.91 14.5288 14.363 14.788 13.75 14.925V17.25H16C16.2125 17.25 16.3907 17.322 16.5347 17.466C16.6787 17.61 16.7505 17.788 16.75 18C16.7495 18.212 16.6775 18.3902 16.534 18.5347C16.3905 18.6792 16.2125 18.751 16 18.75H10C9.7875 18.75 9.6095 18.678 9.466 18.534C9.3225 18.39 9.2505 18.212 9.25 18C9.2495 17.788 9.3215 17.61 9.466 17.466C9.6105 17.322 9.7885 17.25 10 17.25H12.25Z" fill="#1570EF"/>
</svg>
