<svg width="12" height="12" viewBox="0 0 12 12" fill="none" xmlns="http://www.w3.org/2000/svg">
<path fill-rule="evenodd" clip-rule="evenodd" d="M5.8372 2.83569C4.98867 2.83569 4.30078 3.52356 4.30078 4.37209C4.30078 5.22066 4.98867 5.90851 5.8372 5.90851C6.68572 5.90851 7.37361 5.22066 7.37361 4.37209C7.37361 3.52356 6.68572 2.83569 5.8372 2.83569Z" fill="#FFD200"/>
<path fill-rule="evenodd" clip-rule="evenodd" d="M8.4331 6.97038C6.80997 6.10785 4.86448 6.10785 3.24135 6.97038C3.08292 7.0546 2.98389 7.21934 2.98389 7.39877V8.47336C2.98389 8.7562 3.21318 8.98549 3.49602 8.98549H8.17843C8.46127 8.98549 8.69055 8.7562 8.69055 8.47336V7.39877C8.69055 7.21934 8.59152 7.0546 8.4331 6.97038Z" fill="#FFD200"/>
</svg>
