<?xml version="1.0" encoding="UTF-8"?>
<svg version="1.1" xmlns="http://www.w3.org/2000/svg" width="2288" height="837">
<path d="M0 0 C11.22097126 4.79388498 22.57251516 9.23804983 33.94213867 13.66577148 C34.93974213 14.05441376 35.93734558 14.44305603 36.96517944 14.84347534 C41.00198082 16.41579117 45.03898422 17.98758566 49.07643127 19.5582428 C58.08520841 23.06422294 67.07821711 26.60925948 76.06713867 30.16577148 C91.55889887 36.29094164 107.0614087 42.38855799 122.56713867 48.47827148 C123.7531366 48.94406616 124.93913452 49.40986084 126.16107178 49.88977051 C132.24134261 52.27768931 138.321702 54.66538254 144.40209961 57.05297852 C155.00787827 61.2176781 165.61289774 65.38431007 176.21795654 69.55084229 C182.00619296 71.82491215 187.79448092 74.09885082 193.58276367 76.37280273 C195.91153996 77.28767841 198.240316 78.20255471 200.5690918 79.11743164 C201.73480713 79.57539124 202.90052246 80.03335083 204.1015625 80.50518799 C244.16870117 96.24584961 244.16870117 96.24584961 247.44421387 97.53323364 C249.58195615 98.37268037 251.72021354 99.21081664 253.85900879 100.0475769 C259.04742429 102.07934822 264.22859289 104.12652245 269.39381027 106.21649837 C271.95790476 107.25287877 274.52504803 108.28158121 277.09247589 109.3096714 C278.91298211 110.04228168 280.72911048 110.7857412 282.54510498 111.52946472 C283.65355774 111.97252457 284.7620105 112.41558441 285.90405273 112.87207031 C287.36587982 113.46487541 287.36587982 113.46487541 288.85723877 114.06965637 C295.13426833 115.94312272 299.85651873 114.38843468 305.71557617 111.97045898 C306.50781082 111.65350571 307.30004547 111.33655243 308.11628723 111.00999451 C309.85053449 110.3147858 311.58289045 109.61484507 313.31356812 108.91079712 C316.1357603 107.76285937 318.96261759 106.62718413 321.79101562 105.49462891 C324.84965092 104.26975625 327.90795777 103.0441211 330.96485901 101.81492615 C342.07459517 97.34883883 353.21991454 92.97454927 364.3678894 88.60498047 C369.11429716 86.74424905 373.85960673 84.88072551 378.60493469 83.01724243 C382.22342167 81.59628436 385.84204905 80.17568431 389.46069336 78.75512695 C396.613898 75.94675591 403.76639424 73.13658412 410.91870117 70.32592773 C435.55054003 60.6464814 460.18395088 50.97107108 484.82446289 41.3137207 C495.34764653 37.1892181 505.86925395 33.06078796 516.38745117 28.92358398 C537.46396702 20.63600947 558.55564187 12.38906788 579.68728638 4.24291992 C581.95297344 3.3694175 584.21834282 2.49509054 586.48336792 1.61987305 C624.08128458 -12.90095416 624.08128458 -12.90095416 635.00463867 -8.08422852 C640.14307452 -5.21226835 644.46578357 -1.03759643 646.24963421 4.71295482 C646.75590729 7.23321589 646.82334387 9.55416892 646.83080387 12.12568188 C646.83627832 13.18647967 646.84175276 14.24727745 646.8473931 15.34022063 C646.84886026 17.08766293 646.84886026 17.08766293 646.85035706 18.8704071 C646.85529503 20.1095991 646.86023301 21.34879109 646.86532062 22.62553436 C646.87804375 26.07038155 646.88632328 29.51518818 646.89274728 32.96004951 C646.90075554 36.67883766 646.91445863 40.39760534 646.92745972 44.11637878 C646.95212018 51.42756084 646.97151131 58.73874806 646.98921246 66.04994991 C647.01024962 74.64741447 647.03669905 83.24485992 647.06338393 91.8423085 C647.11117134 107.29248597 647.15434245 122.7426729 647.19482422 138.19287109 C647.23357773 152.98096649 647.27499503 167.76905065 647.31982422 182.55712891 C647.32390783 183.90595605 647.32390783 183.90595605 647.32807393 185.28203224 C647.33903885 188.90305872 647.35001217 192.52408518 647.36099628 196.14511161 C647.48676265 237.64323667 647.59446718 279.14138805 647.68296528 320.63960934 C647.69175421 324.75370011 647.7008596 328.86779014 647.70998383 332.98188019 C647.73945942 346.43562259 647.76367861 359.88934898 647.77598381 373.34311867 C647.77945197 377.05068442 647.78505278 380.75823614 647.79272652 384.46579552 C647.80115959 388.61480913 647.8048107 392.76379674 647.80430722 396.91281867 C647.8048711 398.3648418 647.80706385 399.81686556 647.81117129 401.26888299 C647.88354491 428.28655715 647.88354491 428.28655715 641.03767395 435.70976257 C636.108999 440.11065708 631.32402987 442.82388467 625.20385742 445.24780273 C624.29721848 445.62145462 623.39057953 445.99510651 622.45646667 446.38008118 C619.54160032 447.57562 616.61788769 448.74714659 613.69213867 449.91577148 C611.74481562 450.70347606 609.79771314 451.49172615 607.85083008 452.28051758 C602.80222184 454.31817671 597.74491994 456.33330338 592.68441772 458.34121704 C587.18683478 460.52320795 581.69321531 462.71512196 576.19995117 464.90795898 C575.11564316 465.34076675 574.03133514 465.77357452 572.91416931 466.21949768 C563.87847183 469.8311357 554.87045732 473.50649705 545.87963867 477.22827148 C543.17006413 478.34951246 540.46046812 479.47070128 537.75073242 480.59155273 C537.08866287 480.8654332 536.42659332 481.13931366 535.74446106 481.42149353 C527.99244047 484.62423422 520.21750591 487.77023746 512.44213867 490.91577148 C498.21553824 496.67186505 484.00006987 502.45482384 469.78930664 508.24990845 C446.56721556 517.71929492 423.32685019 527.14243135 400.07214355 536.53140259 C390.94569981 540.21636528 381.82183894 543.9076944 372.69869995 547.60083008 C370.09854412 548.65306231 367.49804366 549.70443856 364.89746094 550.75561523 C357.22142984 553.85943895 349.54847035 556.97015018 341.88757324 560.11117554 C338.51882459 561.49212678 335.14850806 562.86922937 331.77813721 564.24621582 C330.21083911 564.88793978 328.64435411 565.53165414 327.07879639 566.1776123 C308.11756716 574.00073684 294.2992492 578.94506916 274.3533268 570.85815811 C271.68658855 569.74422271 269.02818238 568.61205295 266.37427139 567.46790314 C262.4333372 565.77135754 258.47785442 564.10930737 254.52319336 562.44506836 C253.23718451 561.90314283 253.23718451 561.90314283 251.92519569 561.35026932 C240.9473918 556.73963137 229.8850537 552.33996034 218.82495117 547.93139648 C216.6122728 547.04840946 214.39960607 546.16539326 212.18695068 545.28234863 C204.26809426 542.12339915 196.34723189 538.96949144 188.42633057 535.81567383 C180.57876773 532.69076011 172.73224655 529.56325167 164.88745117 526.43139648 C163.78974018 525.99317881 162.69202919 525.55496113 161.56105423 525.10346413 C142.8812436 517.6406306 124.27024982 510.01884715 105.69432831 502.3013773 C93.84469699 497.37883667 81.96290131 492.53818591 70.06713867 487.72827148 C68.30185822 487.01423912 68.30185822 487.01423912 66.50091553 486.28578186 C63.80768575 485.1980984 61.11353626 484.11275202 58.41870117 483.02905273 C57.43559967 482.63349686 56.45249817 482.23794098 55.43960571 481.83039856 C47.07701623 478.46796718 38.70933668 475.11827446 30.34057617 471.77124023 C29.68202511 471.50785166 29.02347404 471.24446308 28.34496689 470.97309303 C21.23438546 468.12943978 14.12291189 465.28803887 7.01000977 462.45019531 C1.08683559 460.08680951 -4.8322485 457.71335637 -10.75048828 455.33764648 C-13.80260312 454.11772219 -16.85824254 452.90761863 -19.91627884 451.70267487 C-22.96134655 450.50020353 -26.00122874 449.28471655 -29.04223633 448.07202148 C-30.6945224 447.42698669 -30.6945224 447.42698669 -32.38018799 446.7689209 C-41.50270901 443.10847027 -50.64619991 439.03240356 -55.30786133 429.91577148 C-57.52673559 423.14559826 -57.59925412 416.33167174 -57.58633423 409.27391052 C-57.59212663 408.12834547 -57.59791903 406.98278041 -57.60388696 405.80250126 C-57.62084988 401.97361136 -57.62376127 398.14484238 -57.62670898 394.31591797 C-57.63491919 391.5603812 -57.64610208 388.80485832 -57.65715027 386.04933167 C-57.6823457 379.32133877 -57.6970838 372.5933612 -57.70846535 365.86533236 C-57.72238162 357.9186406 -57.74738233 349.97199432 -57.77284865 342.02533258 C-57.81841421 327.7068454 -57.85492327 313.38834962 -57.88598633 299.06982422 C-57.91556405 285.44317866 -57.94979935 271.8165585 -57.99047852 258.18994141 C-57.99293698 257.36453332 -57.99539545 256.53912523 -57.99792841 255.68870477 C-58.00784574 252.36233001 -58.01779013 249.03595533 -58.02776767 245.70958074 C-58.12293269 213.96082832 -58.19877796 182.21207622 -58.2555275 150.46323204 C-58.26110715 147.35518769 -58.2667133 144.24714339 -58.27233887 141.13909912 C-58.27371293 140.37682338 -58.275087 139.61454763 -58.2765027 138.82917263 C-58.29811181 126.94828722 -58.32758077 115.0674372 -58.36117126 103.18658014 C-58.39342375 91.74763418 -58.41867861 80.30869706 -58.43642318 68.86971742 C-58.44608204 62.7657585 -58.45891289 56.6618504 -58.48033524 50.55792046 C-58.49973689 44.99905373 -58.50985097 39.44025145 -58.51244593 33.88135219 C-58.51501029 31.88094989 -58.52098089 29.88054842 -58.53072119 27.8801682 C-58.54342401 25.17072649 -58.54368917 22.46155412 -58.54086304 19.75209045 C-58.54746559 18.98096355 -58.55406814 18.20983665 -58.56087077 17.41534227 C-58.52491327 9.4457701 -57.4752551 2.23147499 -52.30786133 -4.08422852 C-36.74858948 -18.96701028 -16.5638744 -7.12870875 0 0 Z M-10.30786133 46.91577148 C-10.45823457 91.65634221 -10.60326443 136.39692747 -10.74110893 181.13753865 C-10.75738029 186.41729477 -10.77369598 191.69705075 -10.79003906 196.97680664 C-10.79329199 198.02792918 -10.79654491 199.07905171 -10.79989641 200.16202645 C-10.85270142 217.19081365 -10.90909887 234.21958716 -10.96681953 251.24835832 C-11.02594835 268.71610807 -11.08122686 286.18386693 -11.13291687 303.6516403 C-11.16494463 314.4337298 -11.19999031 325.21580087 -11.23887324 335.99786787 C-11.26523441 343.38741305 -11.28786204 350.77696373 -11.3075325 358.16652973 C-11.3189991 362.43249847 -11.33213214 366.69844524 -11.34969139 370.96439362 C-11.36572742 374.86909668 -11.37708018 378.77378419 -11.38469242 382.6785125 C-11.38827715 384.09180531 -11.39358744 385.50509501 -11.40078969 386.91837402 C-11.41032568 388.83895511 -11.41297678 390.75956669 -11.41529179 392.68017006 C-11.41870927 393.74718419 -11.42212675 394.81419832 -11.4256478 395.9135462 C-11.30336168 399.03046175 -11.05215381 401.88342837 -10.30786133 404.91577148 C-8.00544215 406.41815854 -6.17925061 407.33221532 -3.65551758 408.29858398 C-2.59855179 408.73618797 -2.59855179 408.73618797 -1.52023315 409.18263245 C0.85427446 410.15863693 3.24122528 411.09936098 5.62963867 412.04077148 C7.3373864 412.73387723 9.0443178 413.42899725 10.75048828 414.12597656 C15.41070689 416.02205884 20.08281478 417.88704843 24.75793457 419.74603271 C28.67546992 421.30778262 32.58613101 422.88634211 36.49684143 424.46508789 C50.20840593 429.99954512 63.947133 435.46499633 77.69213867 440.91577148 C78.80357239 441.35657043 79.9150061 441.79736938 81.06011963 442.25152588 C91.22767586 446.28344049 101.3967271 450.31157815 111.56640625 454.33813477 C139.43597052 465.37338508 167.2639749 476.4974948 195.00463867 487.85327148 C211.19959354 494.48221849 227.42123904 501.03782084 243.69213867 507.47827148 C245.05237656 508.01797073 245.05237656 508.01797073 246.44009399 508.568573 C249.00214797 509.58432355 251.5655972 510.59645619 254.12963867 511.60717773 C254.86808517 511.90000641 255.60653168 512.19283508 256.36735535 512.49453735 C261.43890055 514.48545973 266.50585294 516.18700957 271.69213867 517.91577148 C271.69213867 398.78577148 271.69213867 279.65577148 271.69213867 156.91577148 C263.77213867 153.94577148 255.85213867 150.97577148 247.69213867 147.91577148 C243.03620822 146.08117409 238.39051764 144.23599818 233.75463867 142.35327148 C231.210968 141.32830551 228.66689642 140.30443572 226.12182617 139.28295898 C225.45799423 139.01651077 224.79416229 138.75006256 224.11021423 138.47554016 C215.22346848 134.91680718 206.3000584 131.4514913 197.37963867 127.97827148 C193.85353889 126.60472272 190.32751406 125.23098164 186.80151367 123.85717773 C185.93952362 123.52135178 185.07753357 123.18552582 184.18942261 122.83952332 C176.16410736 119.71194838 168.14411673 116.57101146 160.12963867 113.41577148 C159.48537933 113.16220886 158.84112 112.90864624 158.17733765 112.6473999 C149.70364663 109.31024608 141.24335366 105.94031015 132.78979492 102.55249023 C131.86613632 102.18241852 130.94247772 101.8123468 129.99082947 101.43106079 C125.43363169 99.60464833 120.87744903 97.77575997 116.32275391 95.94311523 C114.6750606 95.28162759 113.02735609 94.62016782 111.37963867 93.95874023 C110.23223961 93.49572762 110.23223961 93.49572762 109.06166077 93.02336121 C105.96836124 91.55841875 105.96836124 91.55841875 102.69213867 90.91577148 C102.69067211 91.54046263 102.68920555 92.16515377 102.68769455 92.80877495 C102.65056581 108.04242382 102.59147119 123.27581783 102.50823593 138.50927544 C102.46850715 145.87622291 102.43608353 153.24306452 102.42114258 160.61010742 C102.40809393 167.03480434 102.381048 173.4592677 102.33752561 179.88383305 C102.31498236 183.2824148 102.29922365 186.68070927 102.30025482 190.07937241 C102.29788186 193.88310262 102.27077252 197.68592823 102.23803711 201.48950195 C102.24558266 203.16078407 102.24558266 203.16078407 102.25328064 204.86582947 C102.15245761 212.46543363 101.14406217 219.83055222 96.07806015 225.8259716 C91.29585107 230.46800011 85.62505302 232.67392316 79.02416992 233.07983398 C71.86325063 232.81723328 66.13390409 230.61915609 60.69213867 225.91577148 C56.82034812 220.57925593 55.56366933 214.9450192 55.57861328 208.43939209 C55.57871902 206.76986229 55.57871902 206.76986229 55.5788269 205.06660461 C55.58657639 203.24155647 55.58657639 203.24155647 55.59448242 201.37963867 C55.59672401 199.40715393 55.59896533 197.43466918 55.60119629 195.46218443 C55.60456579 193.34355241 55.61041965 191.22494005 55.61697388 189.10631561 C55.63051065 184.68475065 55.6363939 180.26319572 55.64111328 175.84161377 C55.65315509 165.65243844 55.67517441 155.46328922 55.69734192 145.27413177 C55.71754593 135.94515101 55.73561642 126.61617923 55.74555683 117.28718114 C55.75052341 112.89719214 55.76036027 108.5072498 55.77398682 104.11727953 C55.77966973 102.03969683 55.78303214 99.96212571 55.78536987 97.88453674 C55.78822474 95.35870144 55.79465353 92.83286645 55.80545044 90.30705261 C55.80582018 84.41023996 55.59639812 78.74551831 54.69213867 72.91577148 C53.96140137 72.62557129 53.23066406 72.33537109 52.4777832 72.03637695 C48.9233811 70.62331358 45.36993633 69.20786286 41.81713867 67.79077148 C41.16129791 67.52921265 40.50545715 67.26765381 39.82974243 66.99816895 C26.96175076 61.86147438 14.14760662 56.59775273 1.35083008 51.28637695 C0.64478134 50.99405182 -0.0612674 50.70172668 -0.78871155 50.40054321 C-2.11880074 49.84979966 -3.44828839 49.2976004 -4.77708435 48.7437439 C-7.45452664 47.45760441 -7.45452664 47.45760441 -10.30786133 46.91577148 Z M592.31323242 50.11889648 C591.17926025 50.59915283 590.04528809 51.07940918 588.87695312 51.57421875 C587.96219711 51.96300705 587.96219711 51.96300705 587.02896118 52.35964966 C577.9297056 56.22161017 568.80345627 59.94255476 559.49682617 63.27905273 C558.74331375 63.54924225 557.98980133 63.81943176 557.2134552 64.09780884 C553.52611706 65.41408084 549.83299089 66.71180574 546.13330078 67.99291992 C544.78439496 68.46842398 543.43551659 68.94400592 542.08666992 69.41967773 C540.89920166 69.83032471 539.7117334 70.24097168 538.48828125 70.6640625 C535.42688494 71.73646565 535.42688494 71.73646565 533.69213867 74.91577148 C533.40135149 77.46733693 533.40135149 77.46733693 533.46508789 80.37905884 C533.46522888 81.51450134 533.46536987 82.64994385 533.46551514 83.8197937 C533.47584778 85.06656891 533.48618042 86.31334412 533.49682617 87.59790039 C533.50130945 89.6126565 533.50579218 91.62741261 533.51025391 93.64216876 C533.51699974 95.80965444 533.52870992 97.97706367 533.54180908 100.14451981 C533.56885654 104.66708746 533.58064397 109.1896158 533.59008789 113.71224976 C533.61418771 124.13704041 533.65818742 134.56172949 533.70254517 144.9864502 C533.74295923 154.52512404 533.77910627 164.06376248 533.79897499 173.60250413 C533.80890336 178.09179642 533.82857032 182.58090589 533.85583496 187.07012486 C533.87083646 189.87410854 533.8774021 192.67806771 533.88176727 195.48208618 C533.88725072 197.38761543 533.90281529 199.29310747 533.91876221 201.19857788 C533.91988356 210.36375129 533.70385198 218.56812189 527.69213867 225.91577148 C522.63809447 230.85750359 518.3026225 232.58146743 511.31713867 233.22827148 C504.442393 232.635621 497.97089491 230.45795709 492.69213867 225.91577148 C488.93220429 220.17946134 487.58352139 214.54456609 487.53392029 207.72087097 C487.51923706 206.18339203 487.51923706 206.18339203 487.5042572 204.61485291 C487.49850174 203.50138992 487.49274628 202.38792694 487.48681641 201.24072266 C487.47691681 200.05981049 487.46701721 198.87889832 487.45681763 197.66220093 C487.43068482 194.43327378 487.40880019 191.2043516 487.38881564 187.97538161 C487.3669008 184.59743746 487.33953909 181.21953749 487.3127594 177.84162903 C487.26290669 171.44923766 487.21794043 165.05682167 487.17473704 158.66438228 C487.1253011 151.38505283 487.07040661 144.10576774 487.01505744 136.82648122 C486.90135139 121.85628601 486.79448772 106.88604898 486.69213867 91.91577148 C485.12509018 92.37617937 483.55881573 92.8392222 481.99285889 93.30332947 C481.12055508 93.56089492 480.24825127 93.81846037 479.34951401 94.08383083 C475.09045783 95.41720739 470.97094233 97.06690977 466.83276367 98.73217773 C465.90763977 99.10030579 464.98251587 99.46843384 464.02935791 99.84771729 C462.03887349 100.6402177 460.04912682 101.43457315 458.06005859 102.23062134 C452.664829 104.38954753 447.26391957 106.53420015 441.86401367 108.68139648 C440.75743408 109.1218782 439.65085449 109.56235992 438.51074219 110.01618958 C427.75428214 114.29570014 416.97593285 118.51821387 406.19213867 122.72827148 C402.4393945 124.19405914 398.68680705 125.66024742 394.93432617 127.12670898 C393.9770462 127.50078888 393.01976624 127.87486877 392.03347778 128.26028442 C383.89788624 131.44102646 375.7671102 134.63396947 367.63745117 137.82983398 C366.99927711 138.08068693 366.36110306 138.33153988 365.70359039 138.58999443 C358.79110886 141.30719737 351.87910519 144.02561136 344.9675293 146.74511719 C342.6804255 147.64446404 340.39331638 148.54379739 338.10620117 149.44311523 C337.06867706 149.85167755 336.03115295 150.26023987 334.96218872 150.68118286 C333.98829193 151.06402435 333.01439514 151.44686584 332.01098633 151.84130859 C331.10358704 152.20151093 330.19618774 152.56171326 329.2612915 152.93283081 C327.60320294 153.56720439 325.93059057 154.16537178 324.24359131 154.71829224 C321.81629489 155.48101822 321.81629489 155.48101822 318.69213867 156.91577148 C317.36382802 160.15367585 317.57379641 163.52553541 317.58470821 166.98336411 C317.58620056 168.23490052 317.58769291 169.48643693 317.58923048 170.77589869 C317.59601278 172.16722962 317.60288866 173.55856009 317.60984802 174.94989014 C317.61354165 176.42589507 317.61679097 177.90190117 317.61963326 179.37790799 C317.62874421 183.43925527 317.64417557 187.50055798 317.66061604 191.5618813 C317.67723753 195.93948311 317.68803009 200.31709968 317.69952393 204.69471741 C317.72024342 212.28103659 317.74467122 219.8673366 317.77160454 227.45363617 C317.81054045 238.42220608 317.84390417 249.39078735 317.8758998 260.35937944 C317.92795994 278.1543947 317.98453815 295.94939263 318.04394531 313.74438477 C318.10165053 331.03246384 318.15723558 348.32054757 318.20996094 365.60864258 C318.21321066 366.67394911 318.21646038 367.73925563 318.21980857 368.83684418 C318.23609805 374.18107497 318.25234575 379.52530589 318.26857269 384.86953688 C318.40328496 429.21830313 318.5453244 473.56704375 318.69213867 517.91577148 C322.82614172 516.33131933 326.95939678 514.74492459 331.0925293 513.15820312 C332.25222229 512.71375099 333.41191528 512.26929886 334.60675049 511.81137848 C343.42604512 508.42404535 352.18749081 504.91643286 360.91400146 501.29772949 C365.04804544 499.58385953 369.18678324 497.88137295 373.32495117 496.17749023 C374.17989166 495.82522369 375.03483215 495.47295715 375.91567993 495.11001587 C385.28280135 491.25395126 394.67436448 487.45881338 404.06713867 483.66577148 C419.30849338 477.50798684 434.5365494 471.31833288 449.75463867 465.10327148 C451.28683044 464.47758774 451.28683044 464.47758774 452.84997559 463.83926392 C462.19402722 460.02330164 471.53727382 456.20537021 480.88012695 452.38647461 C487.02548048 449.87463053 493.17113542 447.36352538 499.31713867 444.85327148 C500.82599136 444.2369989 500.82599136 444.2369989 502.36532593 443.60827637 C517.7531622 437.32490603 533.1556691 431.0784318 548.56713867 424.85327148 C550.5376854 424.05706327 552.50822587 423.26083958 554.47875977 422.46459961 C569.14451333 416.53919987 569.14451333 416.53919987 575.30444336 414.05639648 C579.18509694 412.49218858 583.0637443 410.92307232 586.94213867 409.35327148 C588.02479004 408.91813232 589.10744141 408.48299316 590.22290039 408.03466797 C591.18728027 407.64351807 592.15166016 407.25236816 593.14526367 406.84936523 C593.9615625 406.5199292 594.77786133 406.19049316 595.61889648 405.85107422 C597.92449381 404.87893117 597.92449381 404.87893117 600.69213867 402.91577148 C601.14479482 400.52231264 601.14479482 400.52231264 601.06407547 397.67782974 C601.07066531 396.56024505 601.07725516 395.44266036 601.08404469 394.29120946 C601.07196009 392.43380608 601.07196009 392.43380608 601.05963135 390.53887939 C601.06290019 389.231183 601.06616903 387.92348661 601.06953692 386.57616305 C601.07822068 382.93299697 601.068086 379.29008408 601.05499458 375.64693999 C601.04412929 371.72134203 601.05050496 367.79576834 601.05477905 363.87016296 C601.06042732 356.16670582 601.0500641 348.46334782 601.03449109 340.75990757 C601.01695252 331.76829305 601.01553164 322.7766978 601.0148755 313.78506884 C601.01318473 297.70931166 600.99734925 281.63359944 600.97338867 265.55786133 C600.95023691 250.01326119 600.93597932 234.46868951 600.93237305 218.92407227 C600.9320389 217.49414323 600.9320389 217.49414323 600.93169799 216.03532675 C600.93125534 214.11447729 600.93081332 212.19362783 600.93037193 210.27277838 C600.93015236 209.32486147 600.92993279 208.37694455 600.92970657 207.40030289 C600.92949059 206.45455525 600.9292746 205.50880761 600.92905207 204.53440095 C600.92532655 189.66816877 600.91395883 174.8019411 600.90157618 159.93571396 C600.89717331 154.57707952 600.89372169 149.21844549 600.89095405 143.85980996 C600.88647336 135.33206567 600.87854123 126.80433809 600.86417964 118.27660426 C600.85767748 114.3884094 600.85252433 110.50022871 600.8517189 106.61202812 C600.84623171 87.02587217 600.47640355 67.48660595 599.69213867 47.91577148 C596.8767987 47.91577148 594.9029712 49.00855883 592.31323242 50.11889648 Z " fill="#0072F8" transform="translate(58.307861328125,261.084228515625)"/>
<path d="M0 0 C7.94977898 5.40133764 15.04538278 11.58816594 21.93554688 18.27197266 C23.26709761 19.55698117 24.62254573 20.81711123 25.98046875 22.07421875 C37.97905185 33.4728727 47.41217065 47.26738704 55.40234375 61.6875 C55.78326172 62.37247559 56.16417969 63.05745117 56.55664062 63.76318359 C57.70286622 65.83678389 58.83756174 67.91604621 59.96484375 70 C60.48558472 70.96123779 60.48558472 70.96123779 61.0168457 71.94189453 C63.40234375 76.44368849 63.40234375 76.44368849 63.40234375 78.6875 C64.06234375 78.6875 64.72234375 78.6875 65.40234375 78.6875 C65.52440186 77.95499023 65.64645996 77.22248047 65.7722168 76.46777344 C70.46724641 55.7521604 88.45132357 35.97958656 102.40234375 20.6875 C103.06234375 19.94371094 103.72234375 19.19992188 104.40234375 18.43359375 C124.29483679 -2.83538876 156.43496334 -19.86519846 185.640625 -22.515625 C193.63552523 -22.69630071 200.67123592 -20.91571403 206.6015625 -15.33984375 C210.72253624 -10.70039609 214.08368028 -5.53734349 217.40234375 -0.3125 C217.80888184 0.32623047 218.21541992 0.96496094 218.63427734 1.62304688 C240.41298967 36.27138545 251.20861043 75.88144757 250.40234375 116.6875 C251.5625 116.91099121 252.72265625 117.13448242 253.91796875 117.36474609 C261.15805478 118.97950361 268.13335907 121.4816507 275.15234375 123.8515625 C276.69369874 124.36806951 278.2352059 124.88412265 279.77685547 125.39974976 C283.83240686 126.75728456 287.88621911 128.11993517 291.9395752 129.48400879 C299.13351612 131.90409687 306.33039429 134.31543936 313.52734375 136.7265625 C314.30100784 136.9859536 315.07467194 137.2453447 315.8717804 137.51259613 C327.71804884 141.48281305 339.59049843 145.35743047 351.50195312 149.12841797 C374.51339019 156.4222845 374.51339019 156.4222845 379.6171875 165.95703125 C382.20330849 172.95266729 382.04401367 179.43653251 379.5078125 186.4140625 C374.93333315 195.82164901 366.54025153 200.15002378 357.09375 203.58203125 C356.40374405 203.83644485 355.7137381 204.09085846 355.00282288 204.35298157 C347.68398571 207.01256981 340.25908302 209.31678659 332.81893921 211.60916138 C312.74107902 217.81158523 292.88110968 224.60491609 273.04467773 231.53588867 C256.04079273 237.47229939 238.97250221 243.19677816 221.87924194 248.86898804 C211.20330957 252.41251646 200.53181002 255.96939334 189.859375 259.5234375 C188.69852575 259.91000708 187.53767651 260.29657665 186.34165001 260.69486046 C181.58975581 262.2772827 176.83786251 263.85970761 172.08603382 265.44232655 C166.00757093 267.46673933 159.92891056 269.4905556 153.84985352 271.51318359 C147.84916556 273.50976781 141.84898031 275.5078562 135.84912682 277.50694656 C133.59978537 278.25611908 131.35027036 279.00477072 129.10056496 279.75284958 C125.95824794 280.79783435 122.81646154 281.84438989 119.67504883 282.89208984 C118.69947431 283.21726782 117.72389978 283.54244579 116.7187624 283.87747765 C109.94098919 286.14663255 103.19408252 288.49464234 96.48636341 290.96379662 C93.63719406 291.99514788 91.46080905 292.6875 88.40234375 292.6875 C88.15484375 293.55375 87.90734375 294.42 87.65234375 295.3125 C84.96280611 302.57425163 81.13292282 306.21855678 74.40234375 309.6875 C67.88287062 311.86065771 59.36735062 311.71335003 52.83984375 309.5 C47.66653739 306.77225665 44.90875096 304.09927206 42.83984375 298.6875 C40.05006285 292.83632825 34.15086054 291.78725044 28.40234375 289.6875 C24.09666675 288.17760942 19.7708653 286.73816477 15.43215942 285.32702637 C11.50745293 284.0483799 7.58962962 282.7489829 3.671875 281.44921875 C2.80245773 281.16080109 1.93304047 280.87238342 1.03727722 280.57522583 C-11.35100767 276.45325564 -23.69278412 272.19455618 -36.03515625 267.9375 C-36.65884724 267.72242043 -37.28253822 267.50734085 -37.92512894 267.28574371 C-55.78159028 261.12679136 -73.60347187 254.87700281 -91.39190674 248.52444458 C-126.36842909 236.03550892 -161.49702812 223.99099585 -196.68286133 212.10620117 C-216.09774711 205.54624346 -216.09774711 205.54624346 -225.36328125 202.31640625 C-226.35799438 201.9738958 -226.35799438 201.9738958 -227.37280273 201.62446594 C-235.7490788 198.67927739 -242.36014301 195.45411641 -246.7578125 187.51953125 C-249.69730376 181.10733868 -249.67894298 173.55903396 -247.796875 166.8203125 C-244.4296538 159.20645839 -239.04757193 155.49712102 -231.41040039 152.39135742 C-227.49345714 151.02057491 -223.55466398 149.74888802 -219.59765625 148.5 C-218.06760158 148.00541111 -216.53807813 147.50917643 -215.0090332 147.01147461 C-212.46891482 146.185054 -209.92841702 145.35996424 -207.38630676 144.53968811 C-195.76071558 140.78644252 -184.18061215 136.89568096 -172.59448242 133.02279663 C-167.6528114 131.37122123 -162.70976648 129.72377326 -157.76638794 128.07731628 C-155.46429511 127.3097948 -153.16274419 126.54064564 -150.86178589 125.76972961 C-146.11986586 124.18240756 -141.37768901 122.60611247 -136.60400391 121.11669922 C-135.8883577 120.89018173 -135.17271149 120.66366425 -134.43537903 120.43028259 C-132.63336632 119.8628861 -130.82725374 119.30855273 -129.02075195 118.75561523 C-128.22113037 118.40313721 -127.42150879 118.05065918 -126.59765625 117.6875 C-125.5172445 114.44626476 -125.36244725 111.83267673 -125.203125 108.421875 C-125.13706055 107.15061768 -125.07099609 105.87936035 -125.00292969 104.56958008 C-124.96808472 103.89569244 -124.93323975 103.22180481 -124.89733887 102.52749634 C-122.52273143 58.28783632 -108.98683078 11.92253423 -75.59765625 -19.3125 C-57.85879378 -33.95136709 -15.94479431 -10.44703968 0 0 Z M-52.59765625 27.6875 C-63.79798312 41.26827781 -70.62396546 57.64716834 -74.59765625 74.6875 C-74.75991699 75.35974609 -74.92217773 76.03199219 -75.08935547 76.72460938 C-78.44736913 91.21015851 -77.90567672 105.90567659 -77.59765625 120.6875 C-77.01089111 120.98293701 -76.42412598 121.27837402 -75.81958008 121.58276367 C-42.1109273 138.641613 -8.84554311 159.59790786 17.62890625 186.91015625 C19.40102098 188.68617431 21.24210522 190.31184803 23.15234375 191.9375 C27.48866068 195.65063366 31.46627182 199.6968632 35.45410156 203.77636719 C36.75302268 205.09717551 38.07556059 206.39468248 39.40234375 207.6875 C39.73234375 207.6875 40.06234375 207.6875 40.40234375 207.6875 C41.14398822 166.42924748 36.84198994 125.42921217 16.40234375 88.6875 C15.82742188 87.6253125 15.2525 86.563125 14.66015625 85.46875 C8.30551928 74.10654196 0.31865169 64.13396679 -8.59765625 54.6875 C-9.53158203 53.67429687 -9.53158203 53.67429687 -10.484375 52.640625 C-18.53215474 44.20479719 -27.59292773 37.39218067 -37.97265625 32.125 C-38.62621094 31.79048828 -39.27976563 31.45597656 -39.953125 31.11132812 C-44.19606477 29.05898964 -47.90393754 28.13018923 -52.59765625 27.6875 Z M172.21484375 29.20703125 C171.05287476 29.74336182 171.05287476 29.74336182 169.86743164 30.29052734 C168.64721313 30.88921631 168.64721313 30.88921631 167.40234375 31.5 C166.55728271 31.90943848 165.71222168 32.31887695 164.84155273 32.74072266 C157.20546432 36.56638916 150.84593816 41.08620552 144.40234375 46.6875 C143.88591309 47.12852051 143.36948242 47.56954102 142.83740234 48.02392578 C106.46795756 79.22182663 91.34522826 126.67946143 87.41845703 173.07617188 C86.5370527 184.62337729 86.12993688 196.11020794 86.40234375 207.6875 C91.1675448 203.8316565 91.1675448 203.8316565 95.27734375 199.3125 C97.93023093 196.12903538 100.80080066 193.49650802 103.95703125 190.8203125 C106.44955229 188.6463245 108.84690785 186.39441377 111.24707031 184.11987305 C118.0482658 177.69268735 125.09566188 171.80403671 132.53320312 166.1328125 C134.45526615 164.64657777 136.34440146 163.12535037 138.23046875 161.59375 C147.69244013 153.9709776 157.55410411 147.05491839 167.65234375 140.3125 C168.27947266 139.89211456 168.90660156 139.47172913 169.55273438 139.03860474 C177.34623893 133.82682608 185.24740938 128.94562617 193.43725586 124.37988281 C199.84178019 120.98972831 199.84178019 120.98972831 204.40234375 115.6875 C206.24396874 88.55894725 198.0468611 61.88415874 186.40234375 37.6875 C186.00160645 36.83865234 185.60086914 35.98980469 185.18798828 35.11523438 C184.77532715 34.29861328 184.36266602 33.48199219 183.9375 32.640625 C183.38848022 31.53702637 183.38848022 31.53702637 182.82836914 30.41113281 C181.48421789 28.48486821 181.48421789 28.48486821 179.00561523 27.84545898 C176.17128115 27.67347979 174.76916137 28.02242452 172.21484375 29.20703125 Z M225.83203125 160.53125 C225.11321777 160.9449585 224.3944043 161.35866699 223.65380859 161.78491211 C222.8695752 162.24776611 222.0853418 162.71062012 221.27734375 163.1875 C220.45057129 163.67162354 219.62379883 164.15574707 218.77197266 164.65454102 C188.39373518 182.62464779 159.32756406 202.66780845 133.40234375 226.6875 C136.99320928 227.88445518 137.98875444 227.40568211 141.5124054 226.22241211 C142.57016174 225.87209427 143.62791809 225.52177643 144.71772766 225.1608429 C145.87862411 224.76616318 147.03952057 224.37148346 148.2355957 223.96484375 C149.45890594 223.55683029 150.68221619 223.14881683 151.94259644 222.72843933 C155.30807401 221.60576121 158.66973876 220.47203538 162.03088403 219.33646393 C165.56713057 218.14394225 169.10687538 216.96189875 172.64628601 215.77880859 C179.37618538 213.52755489 186.10306395 211.26741505 192.82883471 209.00386047 C202.61471861 205.71083179 212.40487424 202.43054919 222.19521618 199.15080261 C223.65677161 198.66116604 225.11832615 198.17152677 226.57987976 197.68188477 C227.29574114 197.44208106 228.01160251 197.20227736 228.74915665 196.95520687 C232.93696529 195.55201617 237.12386932 194.14616806 241.30998176 192.73792553 C256.63174966 187.58411265 271.97696291 182.52378188 287.40234375 177.6875 C285.07152302 175.35667927 283.48086148 174.90129738 280.35766602 173.89990234 C279.3064003 173.55970062 278.25513458 173.2194989 277.17201233 172.86898804 C276.03243576 172.50745636 274.89285919 172.14592468 273.71875 171.7734375 C272.55230453 171.39893463 271.38585907 171.02443176 270.18406677 170.63858032 C267.71439798 169.84723512 265.24375085 169.05893771 262.7722168 168.2734375 C258.9816219 167.0678363 255.19474239 165.85108393 251.40820312 164.6328125 C249.01193233 163.86651929 246.6154547 163.10087251 244.21875 162.3359375 C243.08119766 161.97035736 241.94364532 161.60477722 240.7716217 161.2281189 C239.71720383 160.8942215 238.66278595 160.5603241 237.57641602 160.21630859 C236.64757095 159.92033783 235.71872589 159.62436707 234.76173401 159.31942749 C231.04509848 158.3239821 229.07013911 158.65978325 225.83203125 160.53125 Z M-114.22265625 162.1875 C-115.0947876 162.45014648 -115.96691895 162.71279297 -116.86547852 162.98339844 C-124.12482877 165.19307134 -131.3360041 167.53961586 -138.53515625 169.9375 C-139.55883301 170.27845703 -140.58250977 170.61941406 -141.63720703 170.97070312 C-146.00854828 172.43876164 -150.32675092 173.94497444 -154.59765625 175.6875 C-152.11313195 177.34384953 -150.45439386 178.19408737 -147.7043457 179.11352539 C-146.9166127 179.37951538 -146.1288797 179.64550537 -145.317276 179.91955566 C-144.02713844 180.34802795 -144.02713844 180.34802795 -142.7109375 180.78515625 C-141.80302963 181.09102661 -140.89512177 181.39689697 -139.95970154 181.71203613 C-137.984325 182.3775199 -136.00835141 183.04123337 -134.03186035 183.70339966 C-128.67616068 185.49898211 -123.32603087 187.31094993 -117.9765625 189.125 C-116.86783783 189.50096817 -115.75911316 189.87693634 -114.61679077 190.26429749 C-103.15835556 194.16012395 -91.74922592 198.19127889 -80.34765625 202.25 C-76.38810758 203.65909813 -72.42851278 205.06806613 -68.46875 206.4765625 C-67.49549774 206.8228067 -66.52224548 207.1690509 -65.51950073 207.52578735 C-52.66272874 212.09379845 -39.77361669 216.56949898 -26.88378906 221.04321289 C-26.02361679 221.3422049 -25.16344452 221.6411969 -24.27720642 221.94924927 C-22.68346224 222.50316829 -21.08938112 223.05611929 -19.49488831 223.60787964 C-16.5420192 224.63445836 -13.63525321 225.67096747 -10.7722168 226.92993164 C-8.46404354 227.98225565 -8.46404354 227.98225565 -5.59765625 226.6875 C-12.51470014 220.18833794 -19.46410015 213.8261018 -26.875 207.88671875 C-29.70457298 205.60113828 -32.45920095 203.23991617 -35.22265625 200.875 C-50.6045471 188.06007412 -67.55696816 177.95443796 -85.03515625 168.3125 C-85.95901123 167.80009766 -86.88286621 167.28769531 -87.8347168 166.75976562 C-97.63516764 161.41454916 -103.30501904 158.88664915 -114.22265625 162.1875 Z " fill="#0072F8" transform="translate(286.59765625,23.3125)"/>
<path d="M0 0 C17.82 0 35.64 0 54 0 C55.5296962 11.4988833 57.05386633 22.99835277 58.5625 34.5 C58.67528038 35.35976315 58.78806076 36.21952629 58.90425873 37.10534286 C62.25066516 62.64616483 65.37353285 88.20056477 68.125 113.8125 C68.20014454 114.5118869 68.27528908 115.2112738 68.35271072 115.93185425 C69.24910547 124.28644039 70.13231544 132.64238177 71 141 C72.96602703 131.39635117 74.90911459 121.79539047 76.54296875 112.12890625 C82.96626909 74.46516946 91.62541252 37.26691428 100 0 C114.52 0 129.04 0 144 0 C146.37628267 9.99118848 148.71252891 19.9884633 151 30 C151.32668671 31.42832153 151.32668671 31.42832153 151.65997314 32.88549805 C159.92469141 69.09339367 166.89716648 105.37271743 173 142 C173.08023911 141.28069809 173.16047821 140.56139618 173.2431488 139.82029724 C177.16502888 104.70647661 181.20886718 69.61090148 185.63853836 34.55711746 C185.93823234 32.18169532 186.23625884 29.80606894 186.53390503 27.4303894 C187.00160745 23.70078984 187.47401333 19.97181733 187.95045471 16.24332428 C188.12538153 14.8702139 188.29894624 13.49692923 188.47108459 12.12346649 C188.70570091 10.25521182 188.94630094 8.38771141 189.18725586 6.52026367 C189.32078964 5.47231125 189.45432343 4.42435883 189.59190369 3.34465027 C190 1 190 1 191 0 C192.5348297 -0.09319449 194.07392082 -0.117458 195.61157227 -0.11352539 C196.59251358 -0.11344986 197.5734549 -0.11337433 198.5841217 -0.11329651 C199.6507756 -0.10813522 200.7174295 -0.10297394 201.81640625 -0.09765625 C203.44569313 -0.09553383 203.44569313 -0.09553383 205.1078949 -0.09336853 C208.59279075 -0.08775048 212.07762342 -0.07519492 215.5625 -0.0625 C217.91861887 -0.05748733 220.27473874 -0.05292402 222.63085938 -0.04882812 C228.42059535 -0.03777519 234.21029116 -0.02062335 240 0 C239.3993612 10.10744348 237.81687314 19.97454647 236.1484375 29.94580078 C235.85394719 31.72748783 235.55987101 33.50924336 235.26617432 35.2910614 C234.47309552 40.09479201 233.67403597 44.89750957 232.87366486 49.70002985 C232.03558078 54.73406958 231.20247262 59.76893304 230.36865234 64.80368042 C228.96981629 73.24532932 227.56715306 81.68633535 226.16210938 90.12695312 C224.53662998 99.89205651 222.91689874 109.6581 221.3002758 119.4246732 C219.74370666 128.82781194 218.18346039 138.23033674 216.62139893 147.63256454 C215.9567992 151.63314069 215.29343504 155.63391883 214.63104248 159.63486099 C213.85264696 164.3352911 213.07102352 169.03517316 212.2868576 173.73464394 C211.99910769 175.46228698 211.71247211 177.19011604 211.42700958 178.9181385 C211.03848817 181.26886448 210.64599715 183.61889297 210.25244141 185.96878052 C210.08274117 187.0041563 210.08274117 187.0041563 209.90961266 188.06044877 C209.11416524 192.77166952 209.11416524 192.77166952 208 195 C186.22 195 164.44 195 142 195 C137.91781452 174.12113647 137.91781452 174.12113647 136.15234375 165.03710938 C134.96000241 158.90223216 133.76650928 152.76759923 132.56494141 146.63452148 C124.08879194 103.35566042 124.08879194 103.35566042 121.34185791 81.98054504 C121.08641422 79.93236074 121.08641422 79.93236074 120 78 C119.83733643 79.13755737 119.83733643 79.13755737 119.67138672 80.2980957 C115.99888688 105.5260179 111.38131582 130.57145386 106.6875 155.625 C106.52726097 156.48117039 106.36702194 157.33734077 106.20192719 158.21945572 C105.12119171 163.99331928 104.03660411 169.76644786 102.94921875 175.5390625 C102.80614603 176.30000025 102.66307331 177.060938 102.51566505 177.84493446 C102.11291028 179.98492654 101.70848509 182.12459547 101.3034668 184.26416016 C101.07507614 185.47302887 100.84668549 186.68189758 100.6113739 187.92739868 C100.13951067 190.29885677 99.58643832 192.65424672 99 195 C77.55 195 56.1 195 34 195 C30.30378403 174.00504608 26.60871833 153.00989073 22.91566944 132.0143795 C21.20028605 122.26238767 19.48441567 112.51048202 17.76733398 102.75878906 C16.26800169 94.24373619 14.7696491 85.72851155 13.27239817 77.21309245 C12.48206243 72.71835012 11.69128721 68.22368627 10.89933205 63.72922897 C7.15942733 42.50269936 3.5096156 21.26601374 0 0 Z " fill="#000000" transform="translate(885,256)"/>
<path d="M0 0 C17.49 0 34.98 0 53 0 C59.07637019 11.54510336 65.12357366 23.07534159 70.9375 34.75 C71.27727875 35.43077606 71.6170575 36.11155212 71.96713257 36.81295776 C77.67316395 48.24875347 83.24501368 59.74329647 88.70996094 71.29638672 C90.01986908 74.04164083 91.35412767 76.7738093 92.6953125 79.50390625 C100.14619292 94.73746619 106.65649937 110.28074863 113 126 C112.82609741 124.23910034 112.82609741 124.23910034 112.64868164 122.44262695 C112.213035 118.02756246 111.77923285 113.61231826 111.34594727 109.19702148 C111.15926476 107.29723349 110.97210244 105.39749258 110.78442383 103.49780273 C110.51252691 100.74475581 110.24243869 97.99153609 109.97265625 95.23828125 C109.8491555 93.99368889 109.8491555 93.99368889 109.72315979 92.72395325 C109.47199286 90.15014428 109.23412583 87.57541341 109 85 C108.90774643 84.03217087 108.81549286 83.06434174 108.72044373 82.06718445 C107.92951482 73.03087329 107.87068786 64.04120932 107.90234375 54.98046875 C107.90421403 53.38479151 107.90563504 51.78911369 107.90663147 50.19343567 C107.91040866 46.03923901 107.92019662 41.88507857 107.93133545 37.730896 C107.94347545 32.72212217 107.9479747 27.71333609 107.95378876 22.7045517 C107.96341203 15.13634278 107.98260181 7.56821298 108 0 C124.5 0 141 0 158 0 C158 64.35 158 128.7 158 195 C140.18 195 122.36 195 104 195 C94.3125 175.125 94.3125 175.125 91.05541992 168.44165039 C86.24626959 158.59157535 81.40148622 148.7632391 76.42578125 138.99609375 C64.91931193 116.37669714 54.47502963 93.54598848 45 70 C45.59666731 80.89707553 46.55917521 91.67877806 47.89453125 102.51367188 C50.24282855 122.47419895 50.13161532 142.44645326 50.06866455 162.5090332 C50.05826596 166.18375043 50.05377664 169.85847518 50.04882812 173.53320312 C50.03877525 180.68883992 50.01918402 187.84435885 50 195 C33.5 195 17 195 0 195 C0 130.65 0 66.3 0 0 Z M43 66 C44 68 44 68 44 68 Z " fill="#000000" transform="translate(2130,514)"/>
<path d="M0 0 C19.01604336 16.16947367 28.97294585 39.8283971 31.6953125 64.27734375 C34.0004182 94.70178379 30.73718105 129.11364184 10.0546875 153.26953125 C9.36890625 154.0275 8.683125 154.78546875 7.9765625 155.56640625 C7.31140625 156.324375 6.64625 157.08234375 5.9609375 157.86328125 C-9.11596702 174.05699351 -30.78602832 181.95817475 -52.58203125 182.84765625 C-78.11815236 183.45470228 -101.97714261 177.53928279 -121.0234375 159.56640625 C-145.29230123 133.57908252 -149.07271394 101.98368562 -148.20263672 67.765625 C-147.90869085 59.44096621 -146.46491204 51.51826852 -144.0234375 43.56640625 C-143.80381348 42.8501709 -143.58418945 42.13393555 -143.35791016 41.39599609 C-136.69166934 20.51032867 -124.06883704 2.11146542 -104.45703125 -8.3984375 C-72.12500342 -24.77897873 -28.64525866 -23.05684257 0 0 Z M-83.0234375 37.56640625 C-93.13734275 49.95125781 -95.41894252 65.27040767 -95.3359375 80.81640625 C-95.33102295 81.91106201 -95.3261084 83.00571777 -95.32104492 84.13354492 C-95.08518228 100.50241229 -91.97803244 117.49226536 -80.0234375 129.56640625 C-72.34874488 135.89394538 -64.99262389 138.08533717 -55.08203125 137.875 C-46.43737416 137.00280599 -39.82686045 132.88263166 -34.0234375 126.56640625 C-22.04589873 111.89946641 -19.45849364 90.64996799 -21.24169922 72.32324219 C-22.96929041 57.4641362 -26.11005576 42.73967311 -38.2265625 32.75 C-52.85068767 22.42855111 -70.98896803 24.46854616 -83.0234375 37.56640625 Z " fill="#000000" transform="translate(2082.0234375,529.43359375)"/>
<path d="M0 0 C105.97747093 0 105.97747093 0 133.6875 26.1875 C154.1727264 47.40225726 157.45962545 75.44830528 157.21484375 103.62109375 C156.71224246 128.09246943 149.66049514 152.65304022 131.9453125 170.31640625 C96.26430923 202.82681639 44.19320135 195 0 195 C0 130.65 0 66.3 0 0 Z M52 42 C52 78.63 52 115.26 52 153 C68.1111134 151.84920619 80.85388419 150.69772136 92.3125 138.875 C104.66478047 124.07721754 105.26245139 102.73392635 103.69140625 84.3984375 C101.96038515 71.5613076 97.63399468 58.6048654 87.078125 50.34375 C76.4950535 43.50056091 64.37363075 42 52 42 Z " fill="#000000" transform="translate(1053,514)"/>
<path d="M0 0 C1.86159488 1.6142501 3.69027165 3.24893214 5.484375 4.9375 C3.86824344 8.8610564 1.17104808 11.65142883 -1.703125 14.6875 C-2.70380421 15.76108607 -3.70380479 16.83530508 -4.703125 17.91015625 C-5.43015625 18.68963623 -5.43015625 18.68963623 -6.171875 19.48486328 C-8.43970092 21.93645561 -10.6244933 24.45788821 -12.8125 26.98046875 C-16.01524659 30.66068902 -19.26972888 34.29535163 -22.515625 37.9375 C-25.78357206 36.40992475 -28.65759266 34.5220263 -31.640625 32.5 C-42.51114341 25.62536385 -53.79496639 24.36542583 -66.4140625 26.40625 C-77.88046406 29.44466556 -86.54260636 36.33872752 -92.98046875 46.17578125 C-102.68984727 63.7352956 -103.24196249 86.231662 -97.77734375 105.22265625 C-94.1727529 115.83555377 -88.82492269 124.28123181 -78.828125 129.6875 C-65.7833699 135.63120044 -52.30923222 136.87853063 -38.515625 132.9375 C-38.185625 124.3575 -37.855625 115.7775 -37.515625 106.9375 C-46.755625 106.9375 -55.995625 106.9375 -65.515625 106.9375 C-65.515625 92.7475 -65.515625 78.5575 -65.515625 63.9375 C-41.095625 63.9375 -16.675625 63.9375 8.484375 63.9375 C8.84535428 87.11593526 8.84535428 87.11593526 8.92382812 97.00976562 C8.97759508 103.75659014 9.04113851 110.50231359 9.16333008 117.24829102 C9.26124944 122.68840002 9.31495962 128.12732832 9.33827019 133.56825066 C9.35487744 135.64201382 9.38730996 137.71571357 9.43594551 139.78897285 C9.80200783 156.04273224 9.80200783 156.04273224 6.5448761 160.72651672 C4.24445021 162.55145942 2.16359573 163.76198461 -0.515625 164.9375 C-1.69715345 165.66918522 -2.8734865 166.40936732 -4.04296875 167.16015625 C-31.80225534 182.13681603 -63.04831705 185.3493466 -93.36425781 176.29443359 C-105.50112457 172.42023601 -116.02466101 166.39510945 -125.515625 157.9375 C-126.27488281 157.27234375 -127.03414062 156.6071875 -127.81640625 155.921875 C-144.01252305 140.81668835 -153.7137181 117.24041758 -154.67675781 95.25976562 C-154.71447844 91.74209792 -154.74674578 88.22488072 -154.75585938 84.70703125 C-154.76548101 82.47096326 -154.79652288 80.23584981 -154.828125 78 C-154.89989911 68.26073821 -153.8584518 59.40594171 -151.515625 49.9375 C-151.32742188 49.17260254 -151.13921875 48.40770508 -150.9453125 47.61962891 C-145.003095 25.44656926 -130.42982725 5.51307577 -110.62402344 -6.17919922 C-75.32139618 -25.95887254 -32.01399037 -26.24749521 0 0 Z " fill="#000000" transform="translate(1485.515625,273.0625)"/>
<path d="M0 0 C17.16 0 34.32 0 52 0 C52.03738281 8.56066406 52.07476563 17.12132812 52.11328125 25.94140625 C52.14744048 32.08086044 52.18343911 38.22028245 52.22207737 44.35970783 C52.27178729 52.29699811 52.31726945 60.23423564 52.34643555 68.17163086 C52.3695553 74.45974025 52.40310618 80.74769702 52.44870156 87.035685 C52.47244778 90.35896682 52.48973971 93.68196294 52.49761391 97.00534248 C51.58612772 124.06234085 51.58612772 124.06234085 63.3125 147.375 C71.05128249 152.05426383 78.0326004 152.99881685 87 152 C92.76375338 150.34958604 98.66243277 147.4768148 102.08203125 142.390625 C111.3723204 125.54980122 109.18590578 103.98717265 109.31640625 85.44921875 C109.33700997 82.97914815 109.35800726 80.5090808 109.37937927 78.03901672 C109.4342473 71.57669735 109.4838103 65.11434804 109.53222656 58.65197754 C109.59159481 50.87737051 109.65762635 43.10281713 109.72252655 35.3282547 C109.82009146 23.55220313 109.90925112 11.77611494 110 0 C126.5 0 143 0 160 0 C160.08032734 28.01639002 160.08032734 28.01639002 160.10050774 41.97191238 C160.11154023 49.48423071 160.12549011 56.99650405 160.15087891 64.50878906 C160.17315391 71.10295047 160.18460389 77.69708158 160.18975449 84.29127884 C160.19342016 86.79396962 160.2005773 89.29665805 160.21146011 91.79932785 C160.34098729 122.85049012 158.94884104 155.38005185 136.76171875 179.42578125 C119.79345681 195.94970246 96.90210969 198.435096 74.33984375 198.21875 C54.60612056 197.75008506 35.94630917 191.44232126 21.5078125 177.703125 C0.07005429 154.59575946 -0.4779716 121.31778754 -0.29296875 91.796875 C-0.28735943 89.13502252 -0.28294766 86.47319446 -0.28010559 83.81134033 C-0.27087888 77.57871823 -0.24639609 71.346259 -0.21605712 65.11370778 C-0.17887997 57.30239924 -0.16273558 49.49106278 -0.14648438 41.6796875 C-0.1174894 27.78633232 -0.05735779 13.89333115 0 0 Z " fill="#000000" transform="translate(1224,514)"/>
<path d="M0 0 C20.79 0 41.58 0 63 0 C71.03040269 24.09120807 71.03040269 24.09120807 74.28515625 34.95703125 C74.86006923 36.86132753 75.43498454 38.7656231 76.00998402 40.66989326 C76.61405755 42.67235094 77.21670157 44.67523348 77.81890869 46.67825317 C79.76845269 53.16196151 81.72771601 59.64273689 83.68615723 66.12376213 C84.14413171 67.63947243 84.60199646 69.15521589 85.05975342 70.6709919 C90.98682152 90.29704705 96.9850328 109.90130625 102.98464966 129.50527954 C103.42734981 130.95184265 103.87004799 132.39840637 104.31274414 133.8449707 C104.52985896 134.55439095 104.74697378 135.26381121 104.97066784 135.99472904 C106.67013623 141.54851792 108.36675081 147.10317527 110.06209278 152.65822506 C111.41923022 157.10350937 112.78167763 161.54713772 114.14663887 165.99002552 C115.09031099 169.06457463 116.03049894 172.14018202 116.96992111 175.21603203 C117.41869313 176.68273154 117.86892864 178.14898414 118.32069778 179.61476326 C118.94339794 181.63581943 119.56092146 183.65838856 120.17724609 185.68139648 C120.53015717 186.832202 120.88306824 187.98300751 121.24667358 189.16868591 C122 192 122 192 122 195 C103.85 195 85.7 195 67 195 C64.62907375 186.10902657 62.27901282 177.27716354 60.25 168.3125 C60.02957031 167.36439453 59.80914063 166.41628906 59.58203125 165.43945312 C59.37449219 164.52744141 59.16695312 163.61542969 58.953125 162.67578125 C58.76911133 161.87052002 58.58509766 161.06525879 58.39550781 160.2355957 C58 158 58 158 58 154 C40.18 154 22.36 154 4 154 C3.34 157.96 2.68 161.92 2 166 C1.45708331 168.51247577 0.88618161 171.01926011 0.2734375 173.515625 C-0.00580566 174.66321289 -0.28504883 175.81080078 -0.57275391 176.99316406 C-0.91999512 178.39791992 -1.26723633 179.80267578 -1.625 181.25 C-2.73875 185.7875 -3.8525 190.325 -5 195 C-22.49 195 -39.98 195 -58 195 C-57.33079789 189.6463831 -56.74021234 185.56385214 -55.20019531 180.57739258 C-54.82679016 179.35656479 -54.45338501 178.135737 -54.06866455 176.87791443 C-53.65525107 175.55008899 -53.24173455 174.22229563 -52.828125 172.89453125 C-52.39333795 171.48126965 -51.95917046 170.06781731 -51.52557373 168.65419006 C-50.5950545 165.62478414 -49.66048217 162.59667091 -48.72265625 159.56951904 C-47.23035472 154.75231593 -45.74716297 149.93233912 -44.265625 145.11181641 C-42.72522377 140.10101691 -41.18436906 135.09036064 -39.64050293 130.08062744 C-34.83024676 114.47016436 -30.06872504 98.84506646 -25.31930542 83.21600342 C-24.00805743 78.90107239 -22.69570097 74.58647908 -21.38305664 70.27197266 C-20.95466508 68.86387158 -20.52627457 67.45577018 -20.09788513 66.04766846 C-19.88813993 65.35824409 -19.67839474 64.66881973 -19.46229362 63.95850372 C-18.43123505 60.56923007 -17.40044784 57.17987389 -16.36962891 53.79052734 C-12.81068338 42.08898138 -9.24894509 30.38828538 -5.6875 18.6875 C-3.810625 12.520625 -1.93375 6.35375 0 0 Z M30 39 C29.85854553 39.6535144 29.71709106 40.30702881 29.5713501 40.98034668 C28.08154132 47.86077151 26.58814194 54.74041033 25.09277344 61.61962891 C24.53718834 64.17770235 23.9824803 66.73596646 23.42871094 69.29443359 C17.80127592 95.28830762 17.80127592 95.28830762 14.65527344 107.20898438 C13.88571767 110.00894666 13.88571767 110.00894666 14 113 C25.22 113 36.44 113 48 113 C44.54082775 97.26247873 40.90260019 81.56861317 37.25 65.875 C36.64174921 63.25915592 36.03376218 60.64325056 35.42578125 58.02734375 C33.95143129 51.68468385 32.47610948 45.34225063 31 39 C30.67 39 30.34 39 30 39 Z " fill="#000000" transform="translate(1606,514)"/>
<path d="M0 0 C41.58 0 83.16 0 126 0 C126 14.52 126 29.04 126 44 C101.58 44 77.16 44 52 44 C52 53.9 52 63.8 52 74 C72.79 74 93.58 74 115 74 C115 88.19 115 102.38 115 117 C94.21 117 73.42 117 52 117 C52 128.22 52 139.44 52 151 C77.41 151 102.82 151 129 151 C129 165.52 129 180.04 129 195 C86.43 195 43.86 195 0 195 C0 130.65 0 66.3 0 0 Z " fill="#000000" transform="translate(904,514)"/>
<path d="M0 0 C41.58 0 83.16 0 126 0 C126 14.52 126 29.04 126 44 C101.58 44 77.16 44 52 44 C52 53.9 52 63.8 52 74 C72.79 74 93.58 74 115 74 C115 88.19 115 102.38 115 117 C94.21 117 73.42 117 52 117 C52 128.22 52 139.44 52 151 C77.41 151 102.82 151 129 151 C129 165.52 129 180.04 129 195 C86.43 195 43.86 195 0 195 C0 130.65 0 66.3 0 0 Z " fill="#000000" transform="translate(1135,256)"/>
<path d="M0 0 C2.22357095 2.05991613 3.37319463 3.46645841 4.44140625 6.26171875 C3.58417969 7.17953125 2.72695312 8.09734375 1.84375 9.04296875 C-6.15178173 17.60883274 -6.15178173 17.60883274 -13.92578125 26.375 C-17.09670842 30.03901394 -20.33473465 33.64429763 -23.55859375 37.26171875 C-26.83623891 35.72603885 -29.743082 33.83922663 -32.74609375 31.82421875 C-41.88415385 26.02994022 -49.66898616 24.10518525 -60.55859375 25.26171875 C-71.87565828 27.90435783 -80.24841333 33.63837654 -86.76953125 43.19921875 C-93.45846366 54.64926898 -95.95118554 66.89291581 -95.87109375 80.01171875 C-95.8661792 80.97255371 -95.86126465 81.93338867 -95.85620117 82.92333984 C-95.60342722 98.36717989 -92.14337519 113.62671578 -81.16796875 125.0625 C-71.24884358 133.42248125 -61.10282588 134.99641347 -48.55859375 134.26171875 C-40.73819442 132.9692718 -32.50787971 129.27605178 -26.8984375 123.57421875 C-25.55859375 122.26171875 -25.55859375 122.26171875 -23.55859375 122.26171875 C-23.55859375 121.60171875 -23.55859375 120.94171875 -23.55859375 120.26171875 C-20.17775333 120.83734685 -18.64615938 121.83911496 -16.3515625 124.359375 C-15.76818115 124.99238525 -15.1847998 125.62539551 -14.58374023 126.27758789 C-13.97731689 126.95297607 -13.37089355 127.62836426 -12.74609375 128.32421875 C-12.120979 129.00798584 -11.49586426 129.69175293 -10.85180664 130.39624023 C-9.07751546 132.34275224 -7.31536231 134.29939344 -5.55859375 136.26171875 C-4.800625 137.10734375 -4.04265625 137.95296875 -3.26171875 138.82421875 C0.04828064 142.57359859 3.25875309 146.40395735 6.44140625 150.26171875 C4.86666426 154.12699455 2.47104648 156.42966375 -0.55859375 159.26171875 C-1.11417969 159.79925781 -1.66976563 160.33679688 -2.2421875 160.890625 C-16.79167513 174.41166652 -36.47076426 180.69571272 -56.12109375 180.57421875 C-57.07564453 180.5693042 -58.03019531 180.56438965 -59.01367188 180.55932617 C-84.10076925 180.15084387 -106.73261262 171.44436731 -124.9609375 153.95703125 C-131.1838242 147.46820922 -135.45250557 140.17674398 -139.55859375 132.26171875 C-140.04328125 131.34519531 -140.52796875 130.42867187 -141.02734375 129.484375 C-148.04482943 115.25685068 -149.75823777 99.69912614 -149.79882812 84.03125 C-149.80844976 81.79518201 -149.83949163 79.56006856 -149.87109375 77.32421875 C-149.94286786 67.58495696 -148.90142055 58.73016046 -146.55859375 49.26171875 C-146.37039063 48.49682129 -146.1821875 47.73192383 -145.98828125 46.94384766 C-139.69144689 23.44755459 -123.84089559 3.33094495 -102.94921875 -8.921875 C-67.69726751 -27.80684888 -31.0366237 -24.12233206 0 0 Z " fill="#000000" transform="translate(1546.55859375,531.73828125)"/>
<path d="M0 0 C41.91 0 83.82 0 127 0 C127 14.52 127 29.04 127 44 C102.25 44 77.5 44 52 44 C52 55.88 52 67.76 52 80 C73.12 80 94.24 80 116 80 C116 94.52 116 109.04 116 124 C94.88 124 73.76 124 52 124 C52 147.43 52 170.86 52 195 C34.84 195 17.68 195 0 195 C0 130.65 0 66.3 0 0 Z " fill="#000000" transform="translate(1592,256)"/>
<path d="M0 0 C50.82 0 101.64 0 154 0 C154 14.52 154 29.04 154 44 C137.17 44 120.34 44 103 44 C103 93.83 103 143.66 103 195 C85.84 195 68.68 195 51 195 C51 145.17 51 95.34 51 44 C34.17 44 17.34 44 0 44 C0 29.48 0 14.96 0 0 Z " fill="#000000" transform="translate(1702,514)"/>
<path d="M0 0 C50.82 0 101.64 0 154 0 C154 14.52 154 29.04 154 44 C137.17 44 120.34 44 103 44 C103 93.5 103 143 103 194 C85.84 194 68.68 194 51 194 C51 144.5 51 95 51 44 C34.17 44 17.34 44 0 44 C0 29.48 0 14.96 0 0 Z " fill="#000000" transform="translate(1724,256)"/>
<path d="M0 0 C17.16 0 34.32 0 52 0 C52 64.35 52 128.7 52 195 C34.84 195 17.68 195 0 195 C0 130.65 0 66.3 0 0 Z " fill="#000000" transform="translate(1865,514)"/>
<path d="M0 0 C17.16 0 34.32 0 52 0 C52 64.35 52 128.7 52 195 C34.84 195 17.68 195 0 195 C0 130.65 0 66.3 0 0 Z " fill="#000000" transform="translate(1515,256)"/>
</svg>
